<svg xmlns="http://www.w3.org/2000/svg" xmlns:xlink="http://www.w3.org/1999/xlink" viewBox="0 0 1094.29 477.41"><defs><style>.cls-1,.cls-35,.cls-8,.cls-9{fill:none;}.cls-2{fill:#ededed;}.cls-3{fill:#565656;}.cls-4{fill:#3a3a3a;}.cls-5{fill:#242733;}.cls-6{fill:#707070;}.cls-7{opacity:0.61;}.cls-35,.cls-8,.cls-9{stroke:#fff;stroke-linecap:round;stroke-linejoin:round;}.cls-8{stroke-width:0.98px;}.cls-9{stroke-width:0.48px;}.cls-10{fill:url(#Degradado_sin_nombre);}.cls-11{fill:url(#Degradado_sin_nombre_25);}.cls-12{fill:#347ee7;}.cls-13{fill:#206fce;}.cls-14{fill:#d0dcfe;}.cls-15{fill:#272c91;}.cls-16{clip-path:url(#clip-path);}.cls-17{fill:#fd9220;}.cls-18{fill:#9a98ed;}.cls-19{fill:#159aa0;}.cls-20{fill:#205ce1;}.cls-21,.cls-71,.cls-84,.cls-85{fill:#fff;}.cls-22{fill:url(#Degradado_sin_nombre_25-2);}.cls-23{fill:#2875df;}.cls-24{fill:#75bcfc;}.cls-25{fill:#4594f4;}.cls-26{fill:#347ee8;}.cls-27,.cls-91{fill:#205ce2;}.cls-28{fill:url(#Degradado_sin_nombre_25-3);}.cls-29,.cls-82{fill:#b4bbe1;}.cls-30{fill:#dae3f2;}.cls-31{fill:#ced2ef;}.cls-32{fill:#c5c8e8;}.cls-33{fill:#4af4ef;}.cls-34{fill:#0c6868;}.cls-35{stroke-width:3.94px;}.cls-36{fill:url(#Degradado_sin_nombre_25-4);}.cls-37{fill:#80b4ff;}.cls-38{fill:#4588ff;}.cls-39{fill:#f5f5f5;}.cls-40{fill:#e2e2e2;}.cls-41{fill:url(#Degradado_sin_nombre_21);}.cls-42{fill:url(#Degradado_sin_nombre_21-2);}.cls-43{fill:url(#Degradado_sin_nombre_21-3);}.cls-44{fill:url(#Degradado_sin_nombre_21-4);}.cls-45{fill:url(#Degradado_sin_nombre_21-5);}.cls-46{fill:url(#Degradado_sin_nombre_21-6);}.cls-47{fill:url(#Degradado_sin_nombre_21-7);}.cls-48{fill:url(#Degradado_sin_nombre_21-8);}.cls-49{fill:url(#Degradado_sin_nombre_21-9);}.cls-50{fill:url(#Degradado_sin_nombre_21-10);}.cls-51{fill:url(#Degradado_sin_nombre_21-11);}.cls-52{fill:url(#Degradado_sin_nombre_21-12);}.cls-53{fill:url(#Degradado_sin_nombre_21-13);}.cls-54{fill:url(#Degradado_sin_nombre_21-14);}.cls-55{fill:url(#Degradado_sin_nombre_21-15);}.cls-56{fill:url(#Degradado_sin_nombre_21-16);}.cls-57{fill:#898989;}.cls-57,.cls-88{opacity:0.5;}.cls-57,.cls-67,.cls-71,.cls-82,.cls-83,.cls-84,.cls-85,.cls-91{isolation:isolate;}.cls-58{fill:#2a3049;}.cls-59{fill:#22293f;}.cls-60{fill:#3a3d51;}.cls-61{fill:#ffe1bd;}.cls-62{fill:#333647;}.cls-63{fill:#2eed89;}.cls-64{fill:#41f28d;}.cls-65{fill:#27e076;}.cls-66{fill:#24c9c9;}.cls-67{fill:#eda38c;opacity:0.25;}.cls-68{fill:#0a2982;}.cls-69{fill:#48c8ef;}.cls-70{fill:#b3e8f4;}.cls-71{opacity:0.17;}.cls-72{fill:url(#Degradado_sin_nombre_25-5);}.cls-73{fill:#3081e2;}.cls-74{fill:#595959;}.cls-75{fill:#2268bc;}.cls-76{fill:#266fc6;}.cls-77{fill:#f2ba88;}.cls-78{fill:#ffd1a4;}.cls-79{fill:#1c2235;}.cls-80{fill:#97a2ce;}.cls-81{fill:#8792b2;}.cls-82{opacity:0.55;}.cls-83,.cls-84{opacity:0.2;}.cls-83{fill:url(#Degradado_sin_nombre_25-6);}.cls-85{opacity:0.6;}.cls-86{fill:#81c5e8;}.cls-87{fill:#cdd5f7;}.cls-89{fill:#6ce3ff;}.cls-90{fill:#2d2d2d;}.cls-91{opacity:0.75;}.cls-92{fill:#165bd6;}.cls-93{fill:#713e23;}.cls-94{fill:#474747;}.cls-95{fill:#442312;}.cls-96{fill:url(#Degradado_sin_nombre_25-7);}.cls-97{fill:#c2e9f3;}.cls-98{fill:#8fc0c8;}.cls-99{fill:url(#Degradado_sin_nombre_25-8);}.cls-100{fill:#095b5b;}</style><linearGradient id="Degradado_sin_nombre" x1="885.36" y1="335.86" x2="921.06" y2="335.86" gradientTransform="translate(0 -247.89)" gradientUnits="userSpaceOnUse"><stop offset="0" stop-color="#fafafa" stop-opacity="0.5"/><stop offset="1" stop-color="#484848"/></linearGradient><linearGradient id="Degradado_sin_nombre_25" x1="775.28" y1="359.29" x2="812.28" y2="359.29" gradientTransform="translate(0 -247.89)" gradientUnits="userSpaceOnUse"><stop offset="0" stop-color="#b4bbe1" stop-opacity="0.1"/><stop offset="1" stop-color="#b4bbe1" stop-opacity="0.3"/></linearGradient><clipPath id="clip-path"><path class="cls-1" d="M793.83,62.9c-13.1,0-22.2-5.9-22.2-11.1,0-5-11.21-48.58,31-45.8,13,.9,13.44,40.5,13.44,45.8S806.93,62.9,793.83,62.9Z"/></clipPath><linearGradient id="Degradado_sin_nombre_25-2" x1="741.36" y1="391.14" x2="689.91" y2="420.84" xlink:href="#Degradado_sin_nombre_25"/><linearGradient id="Degradado_sin_nombre_25-3" x1="773.38" y1="396.88" x2="721.89" y2="426.61" xlink:href="#Degradado_sin_nombre_25"/><linearGradient id="Degradado_sin_nombre_25-4" x1="725.23" y1="460.04" x2="968.73" y2="460.04" xlink:href="#Degradado_sin_nombre_25"/><linearGradient id="Degradado_sin_nombre_21" x1="888.73" y1="427.89" x2="946.83" y2="427.89" gradientTransform="translate(0 -247.89)" gradientUnits="userSpaceOnUse"><stop offset="0" stop-color="#ced5ef"/><stop offset="0.37" stop-color="#d5ddf1"/><stop offset="0.87" stop-color="#dae3f2"/></linearGradient><linearGradient id="Degradado_sin_nombre_21-2" x1="879.33" y1="433.39" x2="937.36" y2="433.39" xlink:href="#Degradado_sin_nombre_21"/><linearGradient id="Degradado_sin_nombre_21-3" x1="869.92" y1="438.69" x2="927.95" y2="438.69" xlink:href="#Degradado_sin_nombre_21"/><linearGradient id="Degradado_sin_nombre_21-4" x1="860.53" y1="444.04" x2="918.56" y2="444.04" xlink:href="#Degradado_sin_nombre_21"/><linearGradient id="Degradado_sin_nombre_21-5" x1="851.12" y1="449.54" x2="909.14" y2="449.54" xlink:href="#Degradado_sin_nombre_21"/><linearGradient id="Degradado_sin_nombre_21-6" x1="841.13" y1="455.24" x2="899.16" y2="455.24" xlink:href="#Degradado_sin_nombre_21"/><linearGradient id="Degradado_sin_nombre_21-7" x1="831.51" y1="460.74" x2="889.53" y2="460.74" xlink:href="#Degradado_sin_nombre_21"/><linearGradient id="Degradado_sin_nombre_21-8" x1="822.03" y1="466.29" x2="880.06" y2="466.29" xlink:href="#Degradado_sin_nombre_21"/><linearGradient id="Degradado_sin_nombre_21-9" x1="815.83" y1="397.89" x2="881.83" y2="397.89" xlink:href="#Degradado_sin_nombre_21"/><linearGradient id="Degradado_sin_nombre_21-10" x1="806.43" y1="403.29" x2="872.43" y2="403.29" xlink:href="#Degradado_sin_nombre_21"/><linearGradient id="Degradado_sin_nombre_21-11" x1="796.93" y1="408.74" x2="862.93" y2="408.74" xlink:href="#Degradado_sin_nombre_21"/><linearGradient id="Degradado_sin_nombre_21-12" x1="787.53" y1="414.19" x2="853.53" y2="414.19" xlink:href="#Degradado_sin_nombre_21"/><linearGradient id="Degradado_sin_nombre_21-13" x1="778.03" y1="419.59" x2="844.03" y2="419.59" xlink:href="#Degradado_sin_nombre_21"/><linearGradient id="Degradado_sin_nombre_21-14" x1="768.63" y1="424.99" x2="834.63" y2="424.99" xlink:href="#Degradado_sin_nombre_21"/><linearGradient id="Degradado_sin_nombre_21-15" x1="759.13" y1="430.49" x2="825.13" y2="430.49" xlink:href="#Degradado_sin_nombre_21"/><linearGradient id="Degradado_sin_nombre_21-16" x1="749.63" y1="435.89" x2="815.63" y2="435.89" xlink:href="#Degradado_sin_nombre_21"/><linearGradient id="Degradado_sin_nombre_25-5" x1="638.03" y1="649.03" x2="720.71" y2="649.03" xlink:href="#Degradado_sin_nombre_25"/><linearGradient id="Degradado_sin_nombre_25-6" x1="873.49" y1="408.04" x2="914.85" y2="408.04" xlink:href="#Degradado_sin_nombre_25"/><linearGradient id="Degradado_sin_nombre_25-7" x1="494.92" y1="629.38" x2="671.13" y2="629.38" xlink:href="#Degradado_sin_nombre_25"/><linearGradient id="Degradado_sin_nombre_25-8" x1="883.68" y1="661.1" x2="1048.43" y2="661.1" xlink:href="#Degradado_sin_nombre_25"/></defs><title>Recurso 1</title><g id="Capa_2" data-name="Capa 2"><g id="Capa_1-2" data-name="Capa 1"><path class="cls-2" d="M48.23,205.9c68.4-46.5,213.9-6.8,289.7,29,30.3,14.3,54.2,30.1,94.4,31.5,67.9,2.3,123.5-39,133.4-46.6,95-73,192.7-166.2,331-166.1,48.3.1,99.1,11.1,139,38.1,20,13.5,36.7,31.2,47.5,52.4,13.1,25.5,12.9,51.1,7.9,78.7a242.71,242.71,0,0,1-20.6,63.6c-55.4,114.5-196.6,161.1-235.8,172.6-240.5,70.8-345.2-89.8-651.7-43.4-43.6,6.6-101.7,19-140.8-8.8C-15.77,365.6-14.27,248.5,48.23,205.9Z"/><polygon class="cls-3" points="864.53 111.8 985.03 181.3 985.03 83.1 864.53 13.6 864.53 111.8"/><polygon class="cls-4" points="868.13 109.8 981.53 175.2 981.53 85.2 868.13 19.7 868.13 109.8"/><polygon class="cls-5" points="985.03 181.3 988.53 179.3 988.53 81.1 985.03 83.1 985.03 181.3"/><polygon class="cls-6" points="864.53 13.6 868.13 11.5 988.53 81.1 985.03 83.1 864.53 13.6"/><polygon class="cls-6" points="868.13 109.8 871.73 107.7 981.53 171.1 981.53 175.2 868.13 109.8"/><polygon class="cls-5" points="868.13 109.8 871.73 107.7 871.73 21.8 868.13 19.7 868.13 109.8"/><g class="cls-7"><path class="cls-8" d="M946,109.8c-3.9,0-3.9,3.7,0,8.2s10.3,8.2,14.2,8.2,3.9-3.7,0-8.2S949.93,109.8,946,109.8Z"/><polyline class="cls-8" points="962.53 121.3 953.13 93.4 943.83 110.5"/><line class="cls-8" x1="953.13" y1="117.9" x2="953.13" y2="93.4"/></g><path class="cls-9" d="M908,84.2s-.2-.2-.1-.2c.3-.2,2.9.4,3.1.2.4-.3-3.7-4.7-3.1-5s5.5,5.4,6.2,5c.9-.6-7-9.3-6.2-9.8,1.1-.7,8.1,10.5,9.2,9.8,1.4-.9-10.5-13.8-9.2-14.6,1.5-1,10.6,15.6,12.1,14.6,1.9-1.2-14-18.3-12.1-19.4s13.2,20.7,15.2,19.4c2.3-1.4-17.5-22.8-15.2-24.2s15.5,25.4,17.9,23.9-19-24.8-16.5-26.3c2.1-1.3,13.8,22,16,20.7,1.9-1.2-14.2-18.5-12.3-19.7,1.2-.7,8.6,11.6,9.8,10.8.6-.4-4.7-6.2-4.1-6.5"/><path class="cls-9" d="M912.23,89.2a.35.35,0,0,1,.2-.1c.1.2,1.6,1.7,1.8,2s3.2-2.2,3.4-2c.2.4-1.7,3.5-1.5,3.7.4.6,6.2-4.5,6.6-3.8s-5.1,5.1-4.7,5.6c.5.9,9.3-6.6,9.8-5.6s-8.5,6.6-7.9,7.5,9.4-6.7,9.9-5.7-8.6,6.7-8,7.6c.4.7,7.4-5.3,7.8-4.5s-6.3,5.6-6,6.3c.3.5,5.1-3.7,5.4-3.1s-3.8,4.5-3.6,5c.2.3,2.5-1.8,2.7-1.5"/><path class="cls-10" d="M919.53,102.9a22,22,0,0,1-6.4,9.5,15.53,15.53,0,0,1-5.2,2.9,10.4,10.4,0,0,1-2.9.5,7.52,7.52,0,0,1-1.5,0,3.89,3.89,0,0,1-1.5-.2,12.9,12.9,0,0,1-5.5-2.3,21.43,21.43,0,0,1-4.4-4.1,30.62,30.62,0,0,1-5.3-10.5,39.4,39.4,0,0,1,.6-23.3,29.3,29.3,0,0,1,6.1-10.3,20.36,20.36,0,0,1,4.9-3.7,13.93,13.93,0,0,1,6.1-1.3h1.2v1.2c0,4.5-.1,9-.2,13.5l-.3,13.5-.7-.7h.6l.2.2c2.5,2.5,4.9,5.1,7.2,7.6Zm0,0-7.8-7.1c-2.6-2.3-5.1-4.6-7.6-7l.4.2h-1v-.7l-.3-13.5c-.1-4.5-.1-9-.2-13.5l1.2,1.2a10.84,10.84,0,0,0-5,1.2,16.61,16.61,0,0,0-4.3,3.2,25.37,25.37,0,0,0-5.5,9.4,38.86,38.86,0,0,0-.8,21.9c.3.9.5,1.8.8,2.7a20.29,20.29,0,0,0,1.1,2.6c.4.8.8,1.7,1.2,2.5s1,1.5,1.5,2.3a17.12,17.12,0,0,0,3.8,3.8,10,10,0,0,0,4.9,2.2,3,3,0,0,0,1.3.2c.4,0,.9.1,1.3.1a13.34,13.34,0,0,0,7.6-2.8A21,21,0,0,0,919.53,102.9Z"/><path class="cls-11" d="M812.23,111.4c0,5.8-8.3,10.5-18.5,10.5s-18.5-4.7-18.5-10.5,8.3-10.5,18.5-10.5S812.23,105.5,812.23,111.4Z"/><path class="cls-12" d="M768.33,51.7l7,55.7h.1c.7,5.4,8.7,9.7,18.5,9.7,10.3,0,18.5-4.7,18.5-10.5l7-54.9Z"/><path class="cls-13" d="M819.33,51.7l-7,54.9c0,4.3-4.5,7.9-10.9,9.5a6.55,6.55,0,0,0,1.5-4.2l7-54.9h-41l-.7-5.3Z"/><ellipse class="cls-14" cx="793.83" cy="51.7" rx="25.5" ry="14.4"/><ellipse class="cls-15" cx="793.83" cy="51.7" rx="22.2" ry="11.1"/><ellipse class="cls-15" cx="793.83" cy="51.7" rx="22.2" ry="11.1"/><g class="cls-16"><path class="cls-17" d="M803.63,46.8l-1.2-.3c-.1,0-.2-.1-.2-.3L804,37c0-.1.1-.2.3-.2l1.2.3c.1,0,.2.1.2.3l-1.8,9.2C803.83,46.8,803.73,46.8,803.63,46.8Z"/><path class="cls-18" d="M800.93,88.6c-.2.8-1.5.9-3,.3s-2.7-1.8-2.5-2.5,1.5-.9,3-.3S801.13,87.8,800.93,88.6Z"/><polygon class="cls-19" points="806.93 26 795.43 86.3 800.93 88.6 812.33 28.2 806.93 26"/><path class="cls-20" d="M812.33,28.2c-.2.8-1.5.9-3,.3s-2.7-1.8-2.5-2.5,1.5-.9,3-.3S812.53,27.5,812.33,28.2Z"/></g><g class="cls-16"><path class="cls-20" d="M798.33,12.9l-.1,2v.8l-.1,2.7v.8l-.1,2.7v.8l-.1,2.6v.8l-.1,2.6v.8l-.1,2.7V33l-.1,2.7v.8l-.1,2.6v.8l-.1,2.6v.8l-.1,2.6v.8l-.1,2.7v.8l-.1,2.7v.8l-.1,2.6v.8l-.1,2.7v.8l-.1,2.6V64l-.1,2.7v.8l-.1,10.3c-.1,2.5-1.9,4.2-3.6,3.5l-5.7-2.5a3.77,3.77,0,0,1-1.9-3.7l2-63.3c.1-2.2,1.6-3.9,3.2-3.6l5.3,1.2C797.43,9.4,798.43,11,798.33,12.9Z"/><path class="cls-21" d="M798.33,14.8v.8h-.1l-2.4-.6a.54.54,0,0,1-.3-.4c0-.2.2-.4.4-.3Z"/><path class="cls-21" d="M798.23,18.2V19h-.1l-2.4-.6c-.2,0-.3-.3-.3-.4s.2-.4.4-.3Z"/><path class="cls-21" d="M798.13,21.7v.8H798l-2.4-.6c-.2,0-.3-.3-.3-.4s.2-.4.4-.3Z"/><path class="cls-21" d="M798,25v.8h-.1l-2.4-.6c-.2,0-.3-.3-.3-.4s.2-.4.4-.3Z"/><path class="cls-21" d="M798,28.4v.8h-.1l-2.4-.6c-.2,0-.3-.3-.3-.4s.2-.4.4-.3Z"/><path class="cls-21" d="M797.93,31.9v.8h-.1l-2.4-.6a.54.54,0,0,1-.3-.4c0-.2.2-.4.4-.3Z"/><path class="cls-21" d="M797.83,35.3v.8h0l-2.4-.6c-.2,0-.3-.3-.3-.4s.2-.4.4-.3Z"/><path class="cls-21" d="M797.73,38.6v.8h-.1l-2.4-.6a.54.54,0,0,1-.3-.4c0-.2.2-.4.4-.3Z"/><path class="cls-21" d="M797.63,42v.8h-.1l-2.4-.6c-.2,0-.3-.3-.3-.4s.2-.4.4-.3Z"/><path class="cls-21" d="M797.53,45.4v.8h-.1l-2.4-.6a.54.54,0,0,1-.3-.4c0-.2.2-.4.4-.3Z"/><path class="cls-21" d="M797.43,48.8v.8h-.1l-2.4-.6c-.2,0-.3-.3-.3-.4s.2-.4.4-.3Z"/><path class="cls-21" d="M797.33,52.3v.8h-.1l-2.4-.6c-.2,0-.3-.3-.3-.4s.2-.4.4-.3Z"/><path class="cls-21" d="M797.33,55.7v.8h-.1l-2.4-.6c-.2,0-.3-.3-.3-.4s.2-.4.4-.3Z"/><path class="cls-21" d="M797.23,59.1v.8h0l-2.4-.6a.54.54,0,0,1-.3-.4c0-.1.2-.4.4-.3Z"/><path class="cls-21" d="M797.23,62.4v.8h0l-2.4-.6c-.2,0-.3-.3-.3-.4s.2-.4.4-.3Z"/><path class="cls-21" d="M797.13,65.9v.8H797l-2.4-.6a.54.54,0,0,1-.3-.4c0-.1.2-.4.4-.3Z"/></g><polygon class="cls-22" points="685.43 165.2 703.23 175.5 745.83 151 728.13 140.7 685.43 165.2"/><path class="cls-23" d="M729.53,67.7l-39.8,22.9,13.5,7.8,28.5-23.3V68.9A1.43,1.43,0,0,0,729.53,67.7Z"/><polygon class="cls-24" points="689.83 92.7 729.33 69.9 743.53 78.1 704.03 100.9 689.83 92.7"/><path class="cls-25" d="M744.63,75.6a1.53,1.53,0,0,0-1.7-.2l-39.7,22.9-13.5-7.8,39.8-22.9a1.07,1.07,0,0,1,1.2-.1h0l-2-1a1.71,1.71,0,0,0-1.7-.1l-41.8,24.1v70.3l15.7-9v18.1l42.8-24.6a2.48,2.48,0,0,0,1.3-2.2l1.3-66.3C746.43,76.7,745.23,76.1,744.63,75.6Z"/><polygon class="cls-26" points="703.23 100.9 685.43 90.5 685.43 160.8 703.23 171.1 703.23 100.9"/><polygon class="cls-21" points="700.83 104.6 687.13 96.7 687.13 102.1 700.83 110 700.83 104.6"/><polygon class="cls-21" points="700.83 111.7 687.13 103.8 687.13 105.7 700.83 113.6 700.83 111.7"/><polygon class="cls-21" points="700.83 115.2 687.13 107.3 687.13 109.1 700.83 117.1 700.83 115.2"/><polygon class="cls-21" points="700.83 162 687.13 154.1 687.13 155.9 700.83 163.9 700.83 162"/><path class="cls-27" d="M745.13,76.8l-41.8,24.1v70.2l42.8-24.6a2.48,2.48,0,0,0,1.3-2.2V78.1A1.53,1.53,0,0,0,745.13,76.8Z"/><polygon class="cls-28" points="717.43 171 735.23 181.3 777.83 156.7 760.13 146.4 717.43 171"/><path class="cls-29" d="M761.53,72.8l-39.8,22.9,13.5,7.8,28.5-23.3V74A1.46,1.46,0,0,0,761.53,72.8Z"/><polygon class="cls-30" points="721.83 97.8 761.23 75.1 775.53 83.3 736.03 106 721.83 97.8"/><path class="cls-31" d="M776.63,80.8a1.53,1.53,0,0,0-1.7-.2l-39.7,22.8-13.5-7.8,39.8-22.9a1.07,1.07,0,0,1,1.2-.1h0l-2-1a1.71,1.71,0,0,0-1.7-.1l-41.8,24.1v70.2l15.7-9v18.1l42.8-24.6a2.48,2.48,0,0,0,1.3-2.2l1.3-66.3A15.26,15.26,0,0,1,776.63,80.8Z"/><polygon class="cls-32" points="735.23 106 717.43 95.7 717.43 166 735.23 176.3 735.23 106"/><polygon class="cls-21" points="732.83 109.8 719.13 101.8 719.13 107.3 732.83 115.2 732.83 109.8"/><polygon class="cls-21" points="732.83 116.9 719.13 109 719.13 110.8 732.83 118.8 732.83 116.9"/><polygon class="cls-21" points="732.83 120.4 719.13 112.4 719.13 114.3 732.83 122.2 732.83 120.4"/><polygon class="cls-21" points="732.83 167.2 719.13 159.2 719.13 161.1 732.83 169 732.83 167.2"/><path class="cls-29" d="M777.13,81.9,735.33,106v70.2l42.8-24.6a2.48,2.48,0,0,0,1.3-2.2V83.2A1.53,1.53,0,0,0,777.13,81.9Z"/><polygon class="cls-33" points="859.93 105.1 859.93 127.3 857.53 128.7 836.83 113.1 833.53 92.7 835.93 91.3 859.93 105.1"/><polygon class="cls-34" points="859.93 105.1 859.93 127.3 857.53 128.7 836.83 113.1 857.53 106.4 859.93 105.1"/><polygon class="cls-19" points="857.53 106.4 857.53 128.7 833.53 114.9 833.53 92.7 857.53 106.4"/><polyline class="cls-35" points="839.63 108.3 842.83 114.7 852.23 107.8"/><polygon class="cls-36" points="725.23 195.8 875.73 282.2 968.73 228.4 818.23 142.1 725.23 195.8"/><polygon class="cls-37" points="818.23 133.8 968.73 220.2 968.73 223.5 875.73 277.3 725.23 190.9 725.23 187.6 818.23 133.8"/><polygon class="cls-38" points="725.23 187.6 875.73 273.9 968.73 220.2 818.23 133.8 725.23 187.6"/><path class="cls-21" d="M819.43,124.3s27.4,3.2,73.4,43.8c0,0,39.7,7.6,70.6,38.9v11.5h0l-87.8,50.3-144-82.6V174.7Z"/><path class="cls-39" d="M731.63,174.7s27.4,3.2,73.4,43.8c0,0,39.7,7.6,70.6,38.9v11.4l-144-82.6Z"/><polygon class="cls-40" points="963.33 206.9 875.63 257.3 875.63 268.8 963.33 218.4 963.33 206.9"/><path class="cls-39" d="M957.23,185l-87.7,50.4a99.28,99.28,0,0,0-13.5-7.3c-3.6-1.6-7-2.9-10.4-4.1-22.4-7.4-40.6-5.6-40.6-5.6l87.7-50.4A111.46,111.46,0,0,1,957.23,185Z"/><path class="cls-41" d="M946.83,187.2l-2.1,1.2a110.55,110.55,0,0,0-56-14.7l3.6-2.1A114.57,114.57,0,0,1,946.83,187.2Z"/><path class="cls-42" d="M937.43,192.7l-2.1,1.2a110.55,110.55,0,0,0-56-14.7l3.6-2.1A111.42,111.42,0,0,1,937.43,192.7Z"/><path class="cls-43" d="M927.93,198l-2.1,1.2a111.63,111.63,0,0,0-56-14.7l3.6-2.1C884.83,182.8,906.53,185.2,927.93,198Z"/><path class="cls-44" d="M918.63,203.4l-2.1,1.2a112.92,112.92,0,0,0-56-14.8l3.6-2.1C875.43,188.1,897.23,190.5,918.63,203.4Z"/><path class="cls-45" d="M909.13,208.9l-2.1,1.2a112.92,112.92,0,0,0-56-14.8l3.6-2.1C866,193.6,887.63,196,909.13,208.9Z"/><path class="cls-46" d="M899.13,214.6l-2.1,1.2A111.82,111.82,0,0,0,841,201l3.6-2.1C856,199.3,877.73,201.8,899.13,214.6Z"/><path class="cls-47" d="M889.53,220.1l-2.1,1.2a112.92,112.92,0,0,0-56-14.8l3.6-2.1C846.43,204.8,868.13,207.2,889.53,220.1Z"/><path class="cls-48" d="M880.13,225.6l-2.1,1.2a111.41,111.41,0,0,0-56-14.7l3.6-2.1A112,112,0,0,1,880.13,225.6Z"/><path class="cls-49" d="M815.83,131.3c9.4,2.8,32,11.6,64,39l2-1.2c-30.8-26.5-52.7-36-63.4-39.4Z"/><path class="cls-50" d="M806.43,136.7c9.4,2.8,32,11.7,64,39l2-1.2c-30.8-26.5-52.6-36-63.3-39.4h0Z"/><path class="cls-51" d="M796.93,142.1c9.4,2.8,32,11.6,64,39l2-1.2c-30.8-26.5-52.7-36-63.4-39.3Z"/><path class="cls-52" d="M787.53,147.6c9.4,2.8,32,11.7,64,39l2-1.2c-30.8-26.5-52.7-36-63.3-39.4Z"/><path class="cls-53" d="M778,153c9.4,2.8,32,11.6,64,39l2-1.2c-30.8-26.5-52.7-36-63.3-39.4Z"/><path class="cls-54" d="M768.63,158.4c9.4,2.8,32,11.7,64,39l2-1.2c-30.8-26.5-52.7-36-63.3-39.4Z"/><path class="cls-55" d="M759.13,163.9c9.4,2.8,32,11.6,64,39l2-1.2c-30.8-26.5-52.7-36-63.4-39.4Z"/><path class="cls-56" d="M749.63,169.3c9.4,2.8,32,11.7,64,39l2-1.2c-30.8-26.5-52.7-36-63.3-39.4Z"/><polygon class="cls-29" points="804.93 165.6 810.03 166.3 810.63 171.5 861.43 142.6 854.33 137.8 804.93 165.6"/><path class="cls-57" d="M786.23,183.9c-1.3,1.5-11,6.2-16.4,7.8-.6-.4-1.2-.7-1.9-1.1l17.3-9.2S787.53,182.5,786.23,183.9Z"/><path class="cls-58" d="M768.53,119.3a6.73,6.73,0,0,0-.7,6.3c.8,2.4,1.4,2.7,1.7,3.9s-1.7,3.7-.1,7.4c.8,1.9,5.8-.3,5.8-.3l2.5-3.4-2.5-7Z"/><path class="cls-59" d="M775,131.6l.3,3.4s-6.2,2.4-6.2,1.2c-.2-1.2,1.2-1.8,1.5-2.6a1.86,1.86,0,0,0,0-1.4,6.27,6.27,0,0,1-.6-3.3"/><path class="cls-60" d="M743.23,220.9a.7.7,0,0,1,.2.4c0,.2-.4.6-1.1,1a13.64,13.64,0,0,0-2,1.1c-.7.6-2.1,1.9-2.8,2.5a6.25,6.25,0,0,1-2.4,1.1,13.88,13.88,0,0,1-3.2.3c-1.1-.1-1.8-.6-1.9-1.1a6.82,6.82,0,0,1-.1-1.2"/><polygon class="cls-61" points="738.23 213.7 738.23 217.9 738.23 219.7 741.73 219.7 742.93 213.7 738.23 213.7"/><path class="cls-60" d="M771.23,174.7s-3.7,10.2-11.2,12.8c-1.2.4-2.4.8-3.6,1.1a34,34,0,0,1-10.1,1c.7,7.5-2.7,21.6-3.5,25a1.28,1.28,0,0,1-1,1,.37.37,0,0,0-.3.1,5,5,0,0,1-2.5-.2,1.48,1.48,0,0,1-1.1-1.3c-.2-5.1-1.2-29.3,1.6-31.2,6.9-4.7,23.6-10.4,27-11.7a1.59,1.59,0,0,0,.9-.9l1.2-2.8Z"/><path class="cls-62" d="M758.53,182.8l-2,5.8a34,34,0,0,1-10.1,1c.7,7.5-2.7,21.6-3.5,25a1.28,1.28,0,0,1-1,1,.37.37,0,0,0-.3.1h0c3.2-11.2,2.7-28.7,2.7-28.7C751.23,187.2,758.33,182.9,758.53,182.8Z"/><path class="cls-61" d="M762,216.7l1.6,3.4s4.8,4.4,3.7-1l-2-6.2"/><path class="cls-60" d="M787.53,176.3c-.3,3.1-1.2,6.7-5.5,9.1a90.63,90.63,0,0,1-21.2,8.4c.4.8.7,1.8,1.2,2.9,1.7,4.2,3.7,14.9,4.4,18.4a1.6,1.6,0,0,1-.4,1.5l-.3.3a3.85,3.85,0,0,1-2.4,1.1,1.75,1.75,0,0,1-1.5-1c-2-3.8-11.3-22.1-12-26a3.26,3.26,0,0,1,0-1.7c.1-.2.1-.4.2-.4,4.2-4.5,18.5-10.9,18.5-10.9l.3-10.3,15.7,1.8,2.4.3A28.07,28.07,0,0,1,787.53,176.3Z"/><path class="cls-62" d="M787.53,176.3c-.3,3.1-1.2,6.7-5.5,9.1a90.63,90.63,0,0,1-21.2,8.4c.4.8.7,1.8,1.2,2.9,1.7,4.2,3.7,14.9,4.4,18.4a1.6,1.6,0,0,1-.4,1.5c-1-3.5-3.2-10.6-3.9-14.6-.9-4.5-4.6-10.1-4.6-10.1s4.6-1.2,11.2-3.4,13.7-5.4,15.8-9.4,0-9.7,0-9.7l.1-.1,2.4.3C786.93,169.6,787.73,173.7,787.53,176.3Z"/><path class="cls-19" d="M743.13,221.4a18.24,18.24,0,0,1-2.6,1.5c-1.6.9-3.2,3-4.5,3.5s-3.8.9-5.1.3a1.75,1.75,0,0,1-1-1.3,2.38,2.38,0,0,1,.3-1.2c.4-.7,1.4-1.2,2.7-1.9a15.13,15.13,0,0,0,3.6-3,10.59,10.59,0,0,0,1.5-2.2c.2-.3,1.5.1,1.9.7.2.4.2.5.1.6s-.1.3,0,.4.2.2.3.2a2,2,0,0,0,2-1.7C743.43,217.7,743.73,220.8,743.13,221.4Z"/><path class="cls-60" d="M769.33,221.5a1.4,1.4,0,0,1,.4.8,5.38,5.38,0,0,1-1.2,2.2,3.61,3.61,0,0,0-.4.5,21.46,21.46,0,0,1-1.9,3.2,7.07,7.07,0,0,1-3.4,1.8,3.92,3.92,0,0,1-3-.1,1.8,1.8,0,0,1-1.4-1.4l3.6-2"/><path class="cls-19" d="M769.63,222.1a4.68,4.68,0,0,1-1.3,2.4,15.08,15.08,0,0,1-2.6,4.1,11,11,0,0,1-3.2,1.3c-1.6.4-3.8-.4-3.9-1.8v-.2c.1-1.4,2.1-2.6,2.9-2.9s1.3-3.4,1.5-4.5a.77.77,0,0,1,.8-.7,2.23,2.23,0,0,1,1.3.4c.4.3.3.4.3.7a.43.43,0,0,0,.4.4.37.37,0,0,0,.3-.1c.3-.1,1.6-1.2,1.4-2.1a.54.54,0,0,1,.6.3C768.23,219.7,769.53,221.2,769.63,222.1Z"/><path class="cls-63" d="M773.43,144s-2,6-3.6,10a25.66,25.66,0,0,1-1.2,2.7c-.1.2-.3.4-.4.6-2.7,4.4-9.7,10.8-12.5,13.5h0a1.09,1.09,0,0,1-.9.4,1.49,1.49,0,0,1-1.5-.7l-.2-.4a3.54,3.54,0,0,1,.1-.6h0c1-1.4,6.3-9.5,8.4-12.6,1-1.5,1.8-2.4,2.3-3.1a97,97,0,0,1,2-13.4c0-.1,0-.1.1-.2h0a9.87,9.87,0,0,1,1.9-3.7,9.43,9.43,0,0,1,1-1c.1,0,.1-.1.2-.1a7.35,7.35,0,0,1,2.5-.8,3,3,0,0,1,1.6.5,3.76,3.76,0,0,1,1.6,2.9C775,139.1,774.33,141.5,773.43,144Z"/><path class="cls-64" d="M766.13,140c-.1.6-1.2,9.4-1.3,13.7,0,0-10.5,14.4-11.5,16.1a3.54,3.54,0,0,1,.1-.6h0c1-1.4,6.3-9.5,8.4-12.6,1-1.5,1.8-2.4,2.3-3.1a97,97,0,0,1,2-13.4Z"/><path class="cls-65" d="M769.93,153.9a25.66,25.66,0,0,1-1.2,2.7c-2.3,4.4-10,11.3-12.8,14.1h0a1.09,1.09,0,0,1-.9.4c1.4-1.5,9.5-10.1,10.6-11.4,1.2-1.5,1.8-2.7,1.6-3.7a12.77,12.77,0,0,0-1.2-3,8.09,8.09,0,0,1-1.1-3.6s3.1,1,3.4,1C768.43,150.5,769.23,152.3,769.93,153.9Z"/><path class="cls-65" d="M767.63,138.8a9.92,9.92,0,0,1-.7,4.4,18.35,18.35,0,0,0-2.1,6l3.7-4.3Z"/><path class="cls-19" d="M773.43,144s-2,6-3.6,10a25.66,25.66,0,0,1-1.2,2.7c-.1.2-.3.4-.4.6-2.7,4.4-9.7,10.8-12.5,13.5h0a1.09,1.09,0,0,1-.9.4,1.49,1.49,0,0,1-1.5-.7l-.2-.4a3.54,3.54,0,0,1,.1-.6h0c1-1.4,6.3-9.5,8.4-12.6,1-1.5,1.8-2.4,2.3-3.1a97,97,0,0,1,2-13.4c0-.1,0-.1.1-.2h0a9.87,9.87,0,0,1,1.9-3.7,9.43,9.43,0,0,1,1-1c.1,0,.1-.1.2-.1a7.35,7.35,0,0,1,2.5-.8,3,3,0,0,1,1.6.5,3.76,3.76,0,0,1,1.6,2.9C775,139.1,774.33,141.5,773.43,144Z"/><path class="cls-19" d="M786.93,168.4c.2.4.4.8-.1,1.2,0,0-1.4,1.8-5.8,1.9h-.2a5.28,5.28,0,0,1-1.2-.1,33.36,33.36,0,0,1-10.4-3.5h-.1c-.3-.2-.9-.6-.8-.9a9.52,9.52,0,0,0,.4-2.6,51,51,0,0,0-.4-7.2.37.37,0,0,0-.1-.3c0-.2-.1-.3-.1-.4a26.74,26.74,0,0,0-2.2-4.5h0a8,8,0,0,1-1-2.2c-.4-3,2.7-5.2,2.5-7.8-.1-2.1-.4-4.2.5-5.7a3.18,3.18,0,0,1,1-1c.1,0,.1-.1.2-.1a7.35,7.35,0,0,1,2.5-.8,20.23,20.23,0,0,1,8.8.4s8.9,3.7,9.8,7-2,9.4-3.1,12.6a4.23,4.23,0,0,0-.4,1.2c-1,3.2-1.4,8.1-.9,10.2C785.83,165.7,786.63,167.7,786.93,168.4Z"/><path class="cls-66" d="M786.93,169.6s-1.4,1.8-5.8,1.9h-.2a5.28,5.28,0,0,1-1.2-.1,4.41,4.41,0,0,0,2.1-.8c1-1,.1-6.2-.2-7.7s.2-4.3-.8-4.6l-.3-1.6a2.68,2.68,0,0,1-2.7.6,30.13,30.13,0,0,1-4-1.1c-1.1-.3-2.2-.4-4.4-1s-2.6-1.1-2.6-1.1c-.4-.7-.9-1.5-1.2-2.1h0a5.83,5.83,0,0,0,2.7,1.7c1.6.4,8.3,2.1,9.7,1.9s3-2.3,3-2.3l5.5,2.2c-1,3.2-1.4,8.1-.9,10.2,0,0,.8,2,1.1,2.7C787.13,168.9,787.33,169.2,786.93,169.6Z"/><path class="cls-61" d="M782.93,138.1c-.2,1.3-5.1,4.5-8.9,5.7,0,0-1.6-4.4-1.2-7a2.1,2.1,0,0,1,.7-1.1,2.18,2.18,0,0,0,.5-.4,2.41,2.41,0,0,0,.7-1.7v-.9c-.1-.8-.2-1.4-.2-1.4l7.1-3.9s-1,6.7-.1,7.7C781.63,135.3,783.13,136.9,782.93,138.1Z"/><path class="cls-67" d="M781.13,134.4l-1.6-1.8-.5-.4a5.5,5.5,0,0,0,1.5-1.9l-5.7,2.6v.9a2.84,2.84,0,0,1-.7,1.7,2,2,0,0,0,1.2-.8,16.59,16.59,0,0,1,3.2-2,4,4,0,0,0,1.4,2.9,5.67,5.67,0,0,0,3.7.9Z"/><path class="cls-61" d="M768.93,119.8a22.62,22.62,0,0,0,.5,8.6c1.2,4,2.9,5.2,3.7,5.3s6.4-.8,8-4.6a17.07,17.07,0,0,0,.5-10.6c-.7-2.3-4.7-4.3-7.5-3.7A6.05,6.05,0,0,0,768.93,119.8Z"/><path class="cls-68" d="M778.73,179.6v1l-21.5-8.6-13.4,5.5.2-.3h-1.9v.8c0,.1.1.2.2.3l22.6,9c.2.1.4.1.4,0l14.2-5.9c.1-.1.2-.2.2-.3v-1Z"/><path class="cls-69" d="M779.23,181.2c0,.2-.1.3-.2.3s-.2-.1-.2-.3.1-.3.2-.3S779.23,181.1,779.23,181.2Z"/><ellipse class="cls-69" cx="778.43" cy="181.4" rx="0.2" ry="0.3"/><path class="cls-69" d="M777.83,181.7c0,.2-.1.3-.2.3s-.2-.1-.2-.3.1-.3.2-.3S777.83,181.6,777.83,181.7Z"/><path class="cls-26" d="M757.23,171l-15.1,6.2,23,9.2,14.5-6.1c.2-.1.2-.4,0-.4Z"/><path class="cls-37" d="M757.13,172.2l-13,5.4c-.1,0-.1.2,0,.3l20.1,7.9h.1l13-5.4c.1,0,.1-.2,0-.3l-20.2-7.9Z"/><path class="cls-26" d="M762.73,173.9l-3.9,1.6c-.1,0-.1.1,0,.2l6.2,2.5c.2.1.4.1.4,0l3.9-1.6c.1,0,.1-.1,0-.2l-6.2-2.4A.6.6,0,0,0,762.73,173.9Z"/><path class="cls-70" d="M764.73,186.9c.1,0,.1,0,.2-.1h0l.2-.3-6.2-15.6c-.1-.2-.3-.4-.4-.4L736,161.6h-.2l-.4.4h0l.8.5,5.9,14.8,22.1,8.8-.1.1.6.7Z"/><path class="cls-27" d="M764.73,186.9l-6.2-15.4a1.17,1.17,0,0,0-.6-.6l-22.3-8.9h-.1v.1l6.2,15.5a.22.22,0,0,0,.2.2l22.6,9h.1c0,.1,0,.1.1.1Z"/><path class="cls-71" d="M750.53,175a1.61,1.61,0,0,1-2.2.6c-1-.4-1.6-1.2-1.4-1.8a1.61,1.61,0,0,1,2.2-.6A1.86,1.86,0,0,1,750.53,175Z"/><path class="cls-61" d="M769.63,174.1l-.9,1.1a3,3,0,0,1-1.9.8l-1.2.3h-.1l-.1.1-1.4,1.2h0l-.2.2s-.7,1.2-.9,1.6c0,.1.3.2.4.1s1.1-1.3,1.1-1.3a16.17,16.17,0,0,0-.8,2c0,.1.2.2.5,0a9.43,9.43,0,0,0,1.1-1.7s-.4,1.2-.5,1.6c0,.1.1.2.4.1s.9-1.4.9-1.4l.4-.4-.3.4a4.33,4.33,0,0,0-.4,1.1c-.1.2.3.2.5-.2s.8-1.1,1.1-1.1.4.3,1.3.2,1.5-1.6,1.5-1.6l2.1-2.1Z"/><path class="cls-63" d="M789.23,149.2s-3.2,9.7-4.8,12.7c-2.3,4.4-10,11.3-12.8,14.1h0a1.37,1.37,0,0,1-1.1.4,1.56,1.56,0,0,1-1.3-.7c-.1-.2-.2-.3-.2-.4h0c-.1-.3.1-.5.1-.6h0c1-1.4,6.3-9.5,8.4-12.6,1-1.5,1.8-2.4,2.2-3.1.2-2.1.8-8.3,1.7-12.5h0a3.71,3.71,0,0,0,.2-.9,8.64,8.64,0,0,1,3.2-5,3.64,3.64,0,0,1,4.1-.3c.3.2.4.4.6.5h0a5.48,5.48,0,0,1,1,2.3C790.73,144.3,790,146.7,789.23,149.2Z"/><path class="cls-65" d="M789.23,149.2s-3.2,9.7-4.8,12.7c-2.3,4.4-10,11.3-12.8,14.1h0a1.37,1.37,0,0,1-1.1.4l8.1-8.1a37.23,37.23,0,0,0,5.6-7.8c1.2-2.5,3.9-11.1,4.9-14.5s.5-5.1.4-5.3a5.48,5.48,0,0,1,1,2.3C790.73,144.3,790,146.7,789.23,149.2Z"/><path class="cls-64" d="M781.63,146.3c-.1.6-1,10.3-1,12.6,0,0-10.5,14.5-11.6,16.2-.1-.3.1-.5.1-.6h0c1-1.4,6.3-9.5,8.4-12.6,1-1.5,1.8-2.4,2.2-3.1C780,156.7,780.63,150.5,781.63,146.3Z"/><path class="cls-19" d="M789.23,149.2s-3.2,9.7-4.8,12.7c-2.3,4.4-10,11.3-12.8,14.1h0a1.37,1.37,0,0,1-1.1.4,1.56,1.56,0,0,1-1.3-.7c-.1-.2-.2-.3-.2-.4h0c-.1-.3.1-.5.1-.6h0c1-1.4,6.3-9.5,8.4-12.6,1-1.5,1.8-2.4,2.2-3.1.2-2.1.8-8.3,1.7-12.5h0a3.71,3.71,0,0,0,.2-.9,8.64,8.64,0,0,1,3.2-5,3.64,3.64,0,0,1,4.1-.3c.3.2.4.4.6.5h0a5.48,5.48,0,0,1,1,2.3C790.73,144.3,790,146.7,789.23,149.2Z"/><path class="cls-58" d="M785,137.1c-1.4-.8-3-.6-4.5-1.6h0a.52.52,0,0,0-.4-.2l-.3-.3c-1.9-1.7-1-5.7-1-7.8v-.1c-.1-2.9.1-5-3.5-4.2a8.09,8.09,0,0,1-4.1,0,3.59,3.59,0,0,1-2.6-5.1c.1-.1.1-.2.2-.3,2.4-3.9,8-3.5,11-1.7,2.5,1.5,3.4,3.6,3.4,7.4,0,3.2,1.2,3.1,1.8,6a1.48,1.48,0,0,1,.1.7c0,.3.1.5.1.8A22.5,22.5,0,0,1,785,137.1Z"/><path class="cls-59" d="M785,137.1c-1.4-.8-3-.6-4.5-1.6h0a.52.52,0,0,0-.4-.2l-.3-.3c-1.9-1.7-1-5.7-1-7.8l1.6-1.1a6.46,6.46,0,0,1,0,2.1c-.2,1-.5,1-.8,2.1s-.2,3.2.9,4,2.9.6,3.4.9A13.19,13.19,0,0,0,785,129a1.48,1.48,0,0,1,.1.7c0,.3.1.5.1.8A23.55,23.55,0,0,1,785,137.1Z"/><path class="cls-61" d="M778.53,125.8a1.56,1.56,0,0,1,1.4-.8c.9.2.8,1.4.5,2.5a1.64,1.64,0,0,1-1.8,1.2"/><path class="cls-66" d="M743.13,221.4a18.24,18.24,0,0,1-2.6,1.5c-1.6.9-3.2,3-4.5,3.5s-3.8.9-5.1.3a1.75,1.75,0,0,1-1-1.3c.5.6,1.1,1,2.9.9a6.35,6.35,0,0,0,4.9-2.1,8,8,0,0,1,3.1-2.6c1.2-.5,1.8-1.1,1.6-1.7a1.08,1.08,0,0,0-1.5-.7c-.9.2-1-.3-1-.3s.2.2.3.2a2,2,0,0,0,2-1.7C743.43,217.7,743.73,220.8,743.13,221.4Z"/><path class="cls-66" d="M769.63,222.1a4.68,4.68,0,0,1-1.3,2.4,15.08,15.08,0,0,1-2.6,4.1,11,11,0,0,1-3.2,1.3c-1.6.4-3.8-.4-3.9-1.8,1.8,1.6,5.7.1,6.3-.5s.8-1.6,1.8-2.7,2.1-2.2,1.5-3.2c-.4-.7-1.6-.5-2-.4s-.5-.1-.5-.1a.37.37,0,0,0,.3-.1c.3-.1,1.6-1.2,1.4-2.1a.54.54,0,0,1,.6.3C768.23,219.7,769.53,221.2,769.63,222.1Z"/><path class="cls-72" d="M715.33,383.7,644,424.9l-6-3.4,71.3-41.2,11.1-2.9c.2-.1.4.2.2.4Z"/><path class="cls-29" d="M709.53,373.5l9.6-2.3c.4-.1.5.4.4.6L713,379Z"/><path class="cls-38" d="M719.43,371.7l-2.6,2.9a5.64,5.64,0,0,0-.4-1.2,8.79,8.79,0,0,0-.6-1c-.1-.2-.3-.3-.4-.4l3.7-.9C719.43,371.1,719.73,371.6,719.43,371.7Z"/><path class="cls-38" d="M642.63,412.6l.9,1.6,2.3,4.1,66.3-38.7h0a1.38,1.38,0,0,0,.4-.3,2.26,2.26,0,0,0,.8-1.1,3.34,3.34,0,0,0-.2-2.9,8.79,8.79,0,0,0-.6-1h0a2.91,2.91,0,0,0-2.5-1.1,1.85,1.85,0,0,0-.7.2.1.1,0,0,0-.1.1l-.2.1h-.1Z"/><path class="cls-37" d="M642.63,412.6l.9,1.6,2.3-.7,66.7-39h0a2.91,2.91,0,0,0-2.5-1.1,1.85,1.85,0,0,0-.7.2.1.1,0,0,0-.1.1l-.2.1h-.1Z"/><path class="cls-73" d="M641.63,416.7c.8,1.7,2.5,2.5,3.8,1.9h0a1.38,1.38,0,0,0,.4-.3,2.26,2.26,0,0,0,.8-1.1,3.34,3.34,0,0,0-.2-2.9,3.69,3.69,0,0,0-3.1-2.1,1.85,1.85,0,0,0-.7.2.1.1,0,0,0-.1.1l-.2.1h-.1A3.66,3.66,0,0,0,641.63,416.7Z"/><path class="cls-74" d="M1023.73,205.6c-1.8,1.1-2.6.6-4.7,1.4s-6.2,3.4-7.9,3.6a4.62,4.62,0,0,1-4.5-2.2c-.6-1.4,1.1-2.6,3-3.6s6.4-4.3,6.4-4.3l6.2-.6a5.17,5.17,0,0,0-.6.7l-.6,3.3,2.9.6C1023.73,204.5,1024.23,205.1,1023.73,205.6Z"/><path class="cls-26" d="M1015.93,200s-4.5,3.3-6.4,4.3-3.6,2.1-3,3.6,2.8,2.4,4.5,2.2,5.8-2.8,7.9-3.6,2.9-.4,4.7-1.4c.6-.4.9-3.5-.4-5.8"/><path class="cls-74" d="M1044.13,184.3a.37.37,0,0,1-.1.3c-.3.7-.8,1.2-2.3,2.1s-2.6,3.4-3.9,4.5a7.54,7.54,0,0,1-4.5,2.3c-1.5.1-3.4-1-3.6-2.1s.5-1.5,1.2-2.1a34.9,34.9,0,0,0,3.4-3.1c.4-.5,1.4-2.2,1.4-2.2l5.2-4.2a6.55,6.55,0,0,1,1.8,1.5h-.4a11.22,11.22,0,0,0-.5,1.3s.4.6.5.7,1.2.1,1.2.1A1.84,1.84,0,0,1,1044.13,184.3Z"/><path class="cls-26" d="M1035.73,183.5s-1,1.7-1.4,2.2a25.6,25.6,0,0,1-3.4,3.1,1.87,1.87,0,0,0-1.2,2.1c.2,1.2,2.1,2.2,3.7,2.1a8.84,8.84,0,0,0,4.5-2.3c1.2-1.2,2.3-3.7,3.8-4.5s2.1-1.3,2.3-2.1-.6-3.6-3-4.8"/><path class="cls-60" d="M1041.43,179.1c-1.2,4.8-6.3,4.5-6.3,4.5s-4.3-4.5-8.8-9.8a117.25,117.25,0,0,1-8.3-10.7c-.4-.7-.8-1.3-1.1-1.9a23.25,23.25,0,0,1-1.1-3.2c-2.3-9.4-3.1-29.3-3.1-29.3l13.4,6.6-.1,20.9s1.2,1.2,2.9,3a19.78,19.78,0,0,1,2.9,3.9C1034.33,167.2,1041.43,179.1,1041.43,179.1Z"/><path class="cls-5" d="M1041.43,179.1c-1.2,4.8-6.3,4.5-6.3,4.5s-4.3-4.5-8.8-9.8l.8-8.6,1.3-5.9h.5a19.78,19.78,0,0,1,2.9,3.9C1034.33,167.2,1041.43,179.1,1041.43,179.1Z"/><path class="cls-62" d="M1022.93,141.9s-1.9,9.4-2.1,9.5-2.1,7.9-2.9,11.9c-.4-.7-.8-1.3-1.1-1.9a23.25,23.25,0,0,1-1.1-3.2c.8-6.4,3.5-20.7,3.5-20.7h2.4Z"/><path class="cls-60" d="M1037.33,138.2c-.6,2.9-4.5,13.5-7.4,21.2a57.43,57.43,0,0,0-3.3,15.2c-.6,9.2-2.1,22.9-2.5,25.6a3.59,3.59,0,0,1-1.2.7,6.28,6.28,0,0,1-7.5-1.3s-.1-29.2,0-34.4,5-26.1,5-26.1-7.6-2.4-7.8-10.4l21,2.8,3.6.4C1037.33,132,1038.23,133.8,1037.33,138.2Z"/><path class="cls-62" d="M1037.33,138.2c-.6,2.9-4.5,13.5-7.4,21.2a57.43,57.43,0,0,0-3.3,15.2c-.6,9.2-2.1,22.9-2.5,25.6a3.59,3.59,0,0,1-1.2.7c.4-7.2,2-29.5,2.2-33.6.4-5,3.7-13.1,5.8-20.3a49.05,49.05,0,0,0,1.7-14.5l1-1,3.6.4C1037.33,132,1038.23,133.8,1037.33,138.2Z"/><path class="cls-75" d="M1038.43,132.1a4,4,0,0,1,.3,1.2.55.55,0,0,1-.3.5,13.64,13.64,0,0,1-3.2,1.5,16.46,16.46,0,0,1-6.9.7c-.8-.1-9.1-1.9-14.1-5a3.66,3.66,0,0,1-1.6-3.7h0C1012.83,126.3,1038.43,132.1,1038.43,132.1Z"/><path class="cls-26" d="M1042.33,100.6c-.6,2.6-1.4,5.2-2.1,7.8L1039,112c-1.6,4.3-3.2,8.6-2.3,13.2.4,1.8,1.3,4.1,1.1,6-.1,1.2-.3,2.1-2.2,3.3a7.54,7.54,0,0,1-1.3.6l-.3.1h-.1l-1.2.3a10.86,10.86,0,0,1-3.1.1,6.75,6.75,0,0,1-1.4-.2,42.29,42.29,0,0,1-13.5-4.9h0c-1.5-.9-2.3-3.1-1.9-6.2.3-1.5.6-3.7.9-5.3a25.88,25.88,0,0,0,.4-6.2c0-.9-.1-1.9-.1-2.8-.9-5.7-4.1-17.2-2.5-20.3,1-2,2.8-5.3,2.8-5.3a37.81,37.81,0,0,1,5.9-1.2h.9c1.6.4,3.4.6,5.1,1,1.1.3,2.1.5,3.2.8a9.44,9.44,0,0,1,.9.3,4.88,4.88,0,0,1,.7.3c1.5.6,2.7,1.1,3.5,1.5a20,20,0,0,1,2.6,1.5.1.1,0,0,1,.1.1,26.07,26.07,0,0,1,3.3,2.5,9.22,9.22,0,0,1,2.5,3,6.81,6.81,0,0,1,.3,1.2v.1A41.82,41.82,0,0,1,1042.33,100.6Z"/><path class="cls-76" d="M1043,95.4l-1.8.2c-.4-3.7-11-9.1-11-9.1l-.2-1.2a4.88,4.88,0,0,1,.7.3c1.5.6,2.7,1.1,3.5,1.5a20,20,0,0,1,2.6,1.5.1.1,0,0,1,.1.1,26.07,26.07,0,0,1,3.3,2.5,9.22,9.22,0,0,1,2.5,3A10.38,10.38,0,0,1,1043,95.4Z"/><path class="cls-77" d="M1030,79.6v4.5s-4.6,3.4-7.1,2.9c-1.1-.2-1.6-1.6-1.4-3.5l2.2-.4Z"/><path class="cls-21" d="M1022.33,86.7l-2.7,3.1s-.1-3.7,1.7-5.6,1.8-.3,1.8-.3S1021.53,85.8,1022.33,86.7Z"/><path class="cls-78" d="M1017.13,73.5a25.62,25.62,0,0,0,.4,7.3c.8,3.5,1.1,4.3,2.4,4.9s2.7.7,5-.8a13,13,0,0,0,3.7-4s.4.2,1.2-.7a5.18,5.18,0,0,0,1.6-4.3,13.82,13.82,0,0,0-2.1-7.2c-1.6-2.7-6.4-1.8-8.6-.7S1017.53,71.2,1017.13,73.5Z"/><path class="cls-58" d="M1015.23,73.6c2.4,4.3,8.5,1.4,8.5,1.4.4,1.9,1.8,2.1,2.4,2.4s.7,2.1.7,2.1h.5a11.61,11.61,0,0,1,.3-2.7,1.68,1.68,0,0,1,2.9-.3c.8,1.2-.1,2.5-.6,3.5a3.74,3.74,0,0,0,.2,2.2,7.29,7.29,0,0,0,1.5-2.8,19,19,0,0,0,0-9.9,6.12,6.12,0,0,0-.5-1.2c-1.9-3.1-7.1-3.7-9.2-3-1.8.6-6.2,2.6-7,5.4A3.33,3.33,0,0,0,1015.23,73.6Z"/><path class="cls-4" d="M1015,158.7c0,.3.1.4.1.6A1.27,1.27,0,0,0,1015,158.7Z"/><path class="cls-21" d="M1030,83.6a3.86,3.86,0,0,1,.5,1,8.2,8.2,0,0,1,.4,1.1,12.34,12.34,0,0,1-7.1,5.6l-.6-4.3C1023.13,87,1027.73,86.3,1030,83.6Z"/><path class="cls-79" d="M1015.23,73.6c2.4,4.3,8.5,1.4,8.5,1.4.4,1.9,1.8,2.1,2.4,2.4s.7,2.1.7,2.1h.5a11.61,11.61,0,0,1,.3-2.7,1.68,1.68,0,0,1,2.9-.3c.8,1.2-.1,2.5-.6,3.5a3.74,3.74,0,0,0,.2,2.2,7.29,7.29,0,0,0,1.5-2.8,19,19,0,0,0,0-9.9,6.12,6.12,0,0,0-.5-1.2,28.12,28.12,0,0,1-7,4.5c-3.7,1.6-7,1.3-8,.5a3.08,3.08,0,0,1-1.2-2.6A3.33,3.33,0,0,0,1015.23,73.6Z"/><path class="cls-78" d="M1035.83,138.4a20.57,20.57,0,0,1-.4,2.8c-.1.3-.3.5-.4.8a13.93,13.93,0,0,0-1.6,3.8,12.89,12.89,0,0,0,.6,3.6c0,.1.1.1.1.2h.2c.7-.1.8-1.1.7-1.6s0-1.3.2-1.3c.9.5,1,2.8,1.1,3.7.2,1.2-.4,3.6.1,3.6a4.78,4.78,0,0,0,2.5-1.6,6.6,6.6,0,0,0,1.2-2.7,10.48,10.48,0,0,0-.4-3.5,17.3,17.3,0,0,1-.4-2.7,26.31,26.31,0,0,1,.2-3.3Z"/><path class="cls-76" d="M1036.63,125.1c.4,1.8,1.3,4.1,1.1,6-.1,1.2-.3,2.1-2.2,3.3a7.54,7.54,0,0,1-1.3.6l-.3.1c-.3-6.9.6-18.2.6-18.2-1.4-5.2-1.1-16.8-1.1-16.8s4.9,5.8,4.9,6.2.3,3.1.5,5.4C1037.23,116.2,1035.63,120.5,1036.63,125.1Z"/><path class="cls-26" d="M1045,117.7l-5,23.4-.6.3c-.8.2-2.2.3-4.5-.8,0,0,.4-18.2,1.1-23.5,0,0-3.3-13.1-2.5-19a5.17,5.17,0,0,1,6.3-4.6,4.4,4.4,0,0,1,3.2,2.1C1043,95.4,1046,114.3,1045,117.7Z"/><path class="cls-26" d="M1010.53,108.8h0s3.3-6.7,4.1-9.3l-.8-15s-2.9.5-5.6,6.1-8.3,19.1-7.6,21.4a17.88,17.88,0,0,1,9.9-3.2Z"/><path class="cls-80" d="M1028.83,105.3v17.8h0c0,.1,0,.4-.2.4h0l-.3.2v-.1l-13.2-7.7v-19l-.3-.6.3-.2,12.8,7.5A2.4,2.4,0,0,1,1028.83,105.3Z"/><path class="cls-29" d="M1014.83,96.5l12.8,7.5a1.72,1.72,0,0,1,.8,1.4v18c0,.4-.4.5-.7.4l-13-7.6.1-19.7Z"/><polygon class="cls-80" points="1010.83 98.8 1014.83 96.5 1015.23 96.8 1015.13 101.3 1010.83 98.8"/><polygon class="cls-81" points="1015.23 96.8 1011.23 99.1 1011.23 102.3 1015.23 99.3 1015.23 96.8"/><path class="cls-21" d="M1015.23,97.3l-3.6,2.1-.4,19.1,12.3,7.3,4-2.4a1,1,0,0,0,.5-1V105.6a1.74,1.74,0,0,0-.6-1.1Z"/><path class="cls-80" d="M1024.53,107.8v17.8h0c0,.1,0,.4-.2.4h0l-.3.2v-.1l-13.2-7.7v-19l-.3-.6.3-.2,12.8,7.5A2.23,2.23,0,0,1,1024.53,107.8Z"/><path class="cls-29" d="M1010.53,99l12.8,7.5a1.72,1.72,0,0,1,.8,1.4v18c0,.4-.4.5-.7.4l-13-7.6.1-19.7Z"/><path class="cls-78" d="M1029.43,116.5a1,1,0,0,0-.5-.7l-2.1,1a3.74,3.74,0,0,1,.7-.6.65.65,0,0,0,0-1,10.47,10.47,0,0,0-2.6,1.1,2.17,2.17,0,0,0-.6.7h0a1.37,1.37,0,0,1-1.1.4l-1.8-.6-2,1.5.4,2.2s3.5,2,4.5,1.7c3.5-.9,4.5-2.6,4.5-2.6C1029.43,119,1029.53,117.1,1029.43,116.5Z"/><path class="cls-26" d="M1020.63,121a1.27,1.27,0,0,1-.2-.6c-.2-1.2.4-3.5,2.2-3.4a130.92,130.92,0,0,0-12.1-8.1,16.77,16.77,0,0,0-5.9.7,11.45,11.45,0,0,0-3.9,2.4C1001.53,114.2,1020.63,121,1020.63,121Z"/><path class="cls-76" d="M1045,117.7l-5,23.4-.6.3c.4-1.7,4.2-21.9,4.4-25.4s-3.8-22.6-3.8-22.6a4.4,4.4,0,0,1,3.2,2.1C1043,95.4,1046,114.3,1045,117.7Z"/><path class="cls-82" d="M918.63,185.1h0l-.1-3.9h0V181h0c-.4-7.3-10.6-12.8-23-12.5s-22.5,6.6-22.3,13.9l.1,4c.1,2.8,1.6,5.3,4.2,7.4l-4.8,2.9a4.06,4.06,0,0,0-1.9-.4,1.93,1.93,0,0,0-1,.3c-.1,0-.1.1-.2.1l-.2.1a.1.1,0,0,0-.1.1l-.1.1-23.7,14.6c3.4,1.2,6.9,2.5,10.4,4.1l17.6-10.9a1,1,0,0,0,.5-.4,5.26,5.26,0,0,0,1.1-1.4,4.23,4.23,0,0,0,.3-2l6.3-3.9c.1-.1.2-.1.4-.2l.3-.3a33.53,33.53,0,0,0,13.9,2.4c12.1-.4,21.9-6.2,22.3-13.4h0Z"/><path class="cls-38" d="M870.63,165a5.22,5.22,0,0,0,.4,2.1c1.9,6.6,11.9,11.4,23.7,11.1s21.5-5.7,23-12.5c.2-.7.2-6.3.2-6.3s-6.2-12.3-24-12.1c-10.8.2-23.2,13.5-23.2,13.5S870.53,163.7,870.63,165Zm3.7-.1a7.34,7.34,0,0,1,1.5-4.7c2.9-4.2,9.9-7.2,17.9-7.5s15.2,2.4,18.4,6.4a6.86,6.86,0,0,1,1.8,4.6c.2,6.4-8.6,8.9-19.5,9.3S874.53,171.4,874.33,164.9Z"/><path class="cls-83" d="M873.53,160.8c.2,6.6,9.6,11.6,21,11.2s20.5-6,20.3-12.5-9.6-11.6-21-11.2S873.33,154.2,873.53,160.8Z"/><path class="cls-84" d="M882.23,150.6c20.6.4,26.8,10.6,28.5,16.3,2.6-2.1,4.1-4.6,4.1-7.3-.2-6.6-9.5-11.4-20.9-11.1A34.4,34.4,0,0,0,882.23,150.6Z"/><path class="cls-85" d="M875.53,161c.2,5.8,8.5,10.3,18.6,10s18.2-5.3,18-11.1v-.5c-.5,5.4-8.3,10-17.9,10.3-9.8.3-17.9-3.9-18.5-9.4A1,1,0,0,0,875.53,161Z"/><path class="cls-38" d="M872.73,156.7l5.3-5.5,15.4-3.8,15.7,2.9,5.7,5.3,1.5,3.3-2.2.8s-2.7-10.6-20.5-10.1-19.9,11.3-19.9,11.3l-2.3-.6Z"/><path class="cls-86" d="M870.63,160.8a5.22,5.22,0,0,0,.4,2.1c1.9,6.6,11.9,11.4,23.7,11.1s21.5-5.7,23-12.5a7.14,7.14,0,0,0,.2-2.1c-.3-7.7-11-13.5-24-13.2C880.83,146.7,870.33,153.2,870.63,160.8Zm3.7-.1a7.34,7.34,0,0,1,1.5-4.7c2.9-4.2,9.9-7.2,17.9-7.5s15.2,2.4,18.4,6.4a6.86,6.86,0,0,1,1.8,4.6c.2,6.4-8.6,11.9-19.5,12.2S874.53,167.1,874.33,160.7Z"/><path class="cls-37" d="M870.63,160.8a5.22,5.22,0,0,0,.4,2.1c1.9,6.6,11.9,11.4,23.7,11.1s21.5-5.7,23-12.5a7.14,7.14,0,0,0,.2-2.1c-.3-7.7-11-13.5-24-13.2C880.83,146.7,870.33,153.2,870.63,160.8Zm3.7-.1a7.34,7.34,0,0,1,1.5-4.7c2.9-4.2,9.9-7.2,17.9-7.5s15.2,2.4,18.4,6.4a6.86,6.86,0,0,1,1.8,4.6c.2,6.4-8.6,11.9-19.5,12.2S874.53,167.1,874.33,160.7Z"/><path class="cls-87" d="M867.83,177.2l.4.7h0l2.1,3,.5.8,8.8-5.5h0c.1-.1.3-.1.4-.2a2,2,0,0,0,.6-.9c.1-.2.1-.4.2-.5h0a3,3,0,0,0-.3-1.8,3.61,3.61,0,0,0-1.5-1.5,2,2,0,0,0-1-.2.76.76,0,0,0-.5.2.1.1,0,0,0-.1.1l-.1.1h0Z"/><path class="cls-21" d="M867.83,177.2l.4.7h0l10.7-6.6a2,2,0,0,0-1-.2.76.76,0,0,0-.5.2.1.1,0,0,0-.1.1l-.1.1h0Z"/><path class="cls-29" d="M870.23,180.8l.5.8,8.8-5.5h0c.1-.1.3-.1.4-.2a2,2,0,0,0,.6-.9c.1-.2.1-.4.2-.5Z"/><path class="cls-38" d="M839.53,192.7l1.2,2.2,3.3,5.8L871,184h0a1,1,0,0,0,.5-.4,4.18,4.18,0,0,0,1.1-1.5,5.12,5.12,0,0,0-.3-4,4.28,4.28,0,0,0-.9-1.3h0a4.3,4.3,0,0,0-3.5-1.5,1.69,1.69,0,0,0-1,.3c-.1,0-.1.1-.2.1l-.2.1a.1.1,0,0,0-.1.1l-.1.1Z"/><path class="cls-37" d="M839.53,192.7l1.2,2.2,3.2-1,27.5-17.1h0a4.3,4.3,0,0,0-3.5-1.5,1.69,1.69,0,0,0-1,.3c-.1,0-.1.1-.2.1l-.2.1a.1.1,0,0,0-.1.1l-.1.1Z"/><path class="cls-73" d="M838.23,198.5c1.2,2.3,3.6,3.5,5.4,2.6h0a1,1,0,0,0,.5-.4,5.83,5.83,0,0,0,1.1-1.5,5.12,5.12,0,0,0-.3-4,4.71,4.71,0,0,0-4.4-2.9,1.69,1.69,0,0,0-1,.3c-.1,0-.1.1-.2.1l-.2.1a.1.1,0,0,0-.1.1C837.53,194,837.23,196.3,838.23,198.5Z"/><path class="cls-4" d="M669.43,200.2v1.2a1.7,1.7,0,0,1-.1.7h0c0,.1,0,.1-.1.2a.31.31,0,0,1-.1.2.35.35,0,0,0-.1.2c-.1.1-.1.2-.2.3s-.1.1-.1.2l-.1.1-.2.2a6.22,6.22,0,0,1-1.2.8c-1.8.9-3.7,1.5-5,2.3-.4.3-1.6,1.1-1.6,1.1a17.22,17.22,0,0,1-1.7,1.2,8.29,8.29,0,0,1-4,1.1,2.57,2.57,0,0,1-2.4-1.8v-1l6-2.2Z"/><path class="cls-26" d="M659.13,199.9s1.8-.1,4.8-.6,5-.6,5.3.3.4,1.9-2.2,3.7-4.7,2-6.8,3.7a7.66,7.66,0,0,1-4.5,1.7c-1.6.1-2.7-.5-3-1.2-.8-1.5,0-4.4,0-4.4Z"/><path class="cls-4" d="M680.13,207.3v1.1a1.39,1.39,0,0,1-.7,1.2,21.68,21.68,0,0,1-6.2,1.9,34.59,34.59,0,0,1-4,.4s-1.3.1-2.2.2-2.5.1-3.1-.5l-.4-.4h0c-.1-.1-.1-.1-.1-.2s-.1-.4-.2-.5v-.7l2.1-.2h0l1.1-.1,1-.1.9-.1Z"/><path class="cls-26" d="M671.53,204.5a4.84,4.84,0,0,0,2.9,1.2c1.6,0,4.5,0,5.3.5a1.52,1.52,0,0,1,.6,1,1.47,1.47,0,0,1-.4,1.2c-.5.8-4.5,2.1-7.3,2.3s-3,.2-4.5.4a5.75,5.75,0,0,1-3.7-.1c-1.5-.7-1.6-3-.7-4.5S671.53,204.5,671.53,204.5Z"/><path class="cls-78" d="M655.63,96.5l-.3.5.4,1.8,5.8,2.9.4-.1.9-.1,1.4-.2V99.2a2.33,2.33,0,0,1,1.5-2.4h.1c.4-.1.6-.4,1-.6l.1-.1c1.2-1.2,2.1-3.8,1.9-9.7a15.14,15.14,0,0,0-.7-3.7c-.8-1.6-2.7-2.7-6.3-1.7-6.2,1.7-8.8,4.5-9.2,7S655.63,96.5,655.63,96.5Z"/><path class="cls-77" d="M664.33,101.4V99.3a2.33,2.33,0,0,1,1.5-2.4c-.3.1-1.2.6-2.5,1.2-.5.3-.4,1.9-.4,3.4Z"/><polygon class="cls-78" points="669.23 109.1 678.03 103.8 677.43 108.4 672.23 114 669.23 109.1"/><path class="cls-68" d="M674.23,112.1l11.1,5.7a.61.61,0,0,0,.9-.4l5.3-17.2a1.42,1.42,0,0,0-.6-1.6l-10.3-5.3a.88.88,0,0,0-1.3.6l-5.4,17.3A.66.66,0,0,0,674.23,112.1Z"/><path class="cls-20" d="M674.83,111.6l10.1,5.2a.46.46,0,0,0,.7-.3l5.1-16.1c.2-.8.2-1.1-.6-1.5l-9.6-5a.42.42,0,0,0-.6.3l-5.3,16.8A.45.45,0,0,0,674.83,111.6Z"/><g class="cls-88"><path class="cls-89" d="M689.53,99.9l-.2.6-8.9-4.5.2-.6h0Z"/><polygon class="cls-89" points="688.93 101.9 688.73 102.5 679.83 98 679.93 97.4 688.93 101.9"/><polygon class="cls-89" points="688.23 104 688.03 104.6 679.13 100 679.33 99.3 688.23 104"/><polygon class="cls-89" points="687.53 106 687.33 106.6 678.43 102 678.73 101.4 687.53 106"/><polygon class="cls-89" points="686.93 108 686.73 108.6 677.83 104.1 678.13 103.4 686.93 108"/><polygon class="cls-89" points="686.33 110 686.13 110.7 677.23 106.1 677.43 105.5 686.33 110"/><polygon class="cls-89" points="685.73 112.1 685.53 112.7 676.63 108.1 676.73 107.5 685.73 112.1"/><polygon class="cls-89" points="685.03 114.1 684.83 114.8 675.93 110.1 676.13 109.5 685.03 114.1"/></g><path class="cls-78" d="M683.33,114.5l2,1.7.4.4a6,6,0,0,1,1.2-2.6,6.89,6.89,0,0,1,1.5-.7,1.54,1.54,0,0,0,.6-.4,4.44,4.44,0,0,0,.6-3.7,3.39,3.39,0,0,0-.3-.8h0c-.3-.4-.5-.4-.5-.4s-1.3,1-1.7,1.2-.7.7-1.1.4c-.2-.2.8-1.4,1.1-2s-.3-1.2-.4-1a12.64,12.64,0,0,0-2.1,3.4A32.22,32.22,0,0,0,683.33,114.5Z"/><path class="cls-77" d="M684.83,114.8l.4,1.4.4.4a6,6,0,0,1,1.2-2.6,6.89,6.89,0,0,1,1.5-.7,1.54,1.54,0,0,0,.6-.4,4.44,4.44,0,0,0,.6-3.7,3.39,3.39,0,0,0-.3-.8h0a1.14,1.14,0,0,1-.5.8,18.76,18.76,0,0,1-1.8,1.2,5.05,5.05,0,0,0-1.3,2.1A18.62,18.62,0,0,1,684.83,114.8Z"/><path class="cls-4" d="M649.63,151.7c1.3,7.5,2.3,16.8,2.3,16.8s-2.3,18.6.3,34.9c.1.8.4,2.4,1.3,3a3.54,3.54,0,0,0,3.2,0c.1,0,.1-.1.2-.1,3.8-2.1,3.5-4.8,4-6.6,0-7.2-.8-25,.8-28.9L663,155l-.5-11.2h-13.8C648.83,143.7,647.63,146.8,649.63,151.7Z"/><path class="cls-90" d="M653.83,151.9c1.3,4.3,2.9,15.4,3.3,18.1,0,0-1.2,21.5-.2,36.2,3.8-2.1,3.5-4.8,4-6.6,0-7.2-.8-25,.8-28.9l1.3-15.8-.5-11.2h-9.4A23,23,0,0,0,653.83,151.9Z"/><path class="cls-4" d="M654.73,147.5a20.44,20.44,0,0,0,2.9,7.2,7.46,7.46,0,0,1,.7,1.2c.1.2.7,2.7,1.5,6.1s1.9,7.7,2.6,11.2c-.4,4.5-1.5,20.4.6,34.1a2.77,2.77,0,0,0,1.8,2.1,6.8,6.8,0,0,0,1.5.2,2.66,2.66,0,0,0,1.2-.3c2.2-1,3.9-4.5,3.9-4.5s.1-22.8,1.2-28.8a13.93,13.93,0,0,0,.4-3.5c.2-3.7.6-10.3.7-13.2a97.27,97.27,0,0,0,.1-12l-11.3.2Z"/><path class="cls-90" d="M662.93,147.3a9.4,9.4,0,0,1,.1,1.2,27.9,27.9,0,0,0,1.5,7.1,94.55,94.55,0,0,1,3,18.2c.2,3.5-1.7,20.1-1,35.8a2.66,2.66,0,0,0,1.2-.3c2.2-1,3.9-4.5,3.9-4.5s.1-22.8,1.2-28.8a13.93,13.93,0,0,0,.4-3.5c.2-3.7.6-10.3.7-13.2a97.27,97.27,0,0,0,.1-12Z"/><path class="cls-26" d="M647.43,115.6c1.8,5.5,2.9,14.6,1.8,18.5a75.48,75.48,0,0,0-1.8,9.2c1.1,2.9,10.7,9,16,9.4a6.89,6.89,0,0,0,2-.1c4.7-.7,9.2-4.9,9.2-4.9s-1-15.6-1.7-25.5c-.4-6.6-1.4-10.8-2.1-12.7-.3-1-.5-1.5-.5-1.5a18.56,18.56,0,0,0-4.5-3.5h-.1a53.5,53.5,0,0,0-4.7-2.9h0c-2.2-1.3-4.5-2.5-6.2-3.4l-.6-.3a22.87,22.87,0,0,0-2.8-1.2c-2.5-.4-6,.9-7,5.4C643.73,106.6,645.63,110,647.43,115.6Z"/><path class="cls-91" d="M666,133.9c.4,4.3-.4,14.9-.5,18.6,4.7-.7,9.2-4.9,9.2-4.9s-1-15.6-1.7-25.5c-.4-6.6-1.4-10.8-2.1-12.7-.5-.6-.8-1-.8-1h-6.2s-3.2.6-2.1,8S665.73,128.7,666,133.9Z"/><path class="cls-92" d="M654.43,100.1a14.27,14.27,0,0,0,5.9,3.5,12,12,0,0,0,3.6.2,3.3,3.3,0,0,1,2.1.7h.1l-.9-1.4-1.2-.6s-1.6-.5-2-.7c-.1-.1-.4-.1-.9-.2h0a21,21,0,0,1-2.5-.3,20.41,20.41,0,0,1-2.9-1.8,11.67,11.67,0,0,1-.9-1.4l-.6-.3A2,2,0,0,0,654.43,100.1Z"/><path class="cls-93" d="M650.93,88.3c.5,3.2,3.2,8.1,4.5,8.6a6.43,6.43,0,0,0,2.2.4,2,2,0,0,0,2.2-1.8,10.78,10.78,0,0,1,.9-2.9c1-1.8,2.2-2.7,2.9-2.3s.5,1.4.5,1.4h.4a3.75,3.75,0,0,1,.1-.8,7.57,7.57,0,0,0,.1-1.5,5.68,5.68,0,0,1,1.1-3.3,9.66,9.66,0,0,0,1.5-2.8,5.69,5.69,0,0,0,.4-2.5h0c-.3-2.4-1.2-3.5-2.2-4.1-3-2.2-9.4,2-11.9,3.9a8.64,8.64,0,0,0-2.7,3.7h0A10.75,10.75,0,0,0,650.93,88.3Z"/><path class="cls-21" d="M654.83,97.6l.6-.5a13.82,13.82,0,0,0,8.9,4.4,7.64,7.64,0,0,1,1.8,3l-.8-.5a3.36,3.36,0,0,0-1.4-.5,5.13,5.13,0,0,0-1-.1c-3.2,0-6.3-2.2-7.9-3.7A1.32,1.32,0,0,1,654.83,97.6Z"/><path class="cls-94" d="M669.23,202.6c-.1.1-.1.2-.2.3A1.44,1.44,0,0,1,669.23,202.6Z"/><path class="cls-94" d="M668.83,203.1c0-.1.1-.1.1-.2a.31.31,0,0,0-.1.2C668.73,203.2,668.83,203.2,668.83,203.1Z"/><path class="cls-78" d="M686,115.4h0c-.1.3-1,3.2-1.5,5s-2.2,8.1-3.7,11.1c0,.1,0,.1-.1.2s-.2.3-.2.4,0,.1-.1.2h0c-.1.1-.1.3-.2.4a3.75,3.75,0,0,1-2.7,2h-.2c-1.9,0-6.4-8.2-7.8-10.7a23.61,23.61,0,0,1,2-1.3,15.23,15.23,0,0,0,3.8-3.8c.7,1.5,2.1,3.7,2.7,5.2a4.2,4.2,0,0,0,.2-.5,28.4,28.4,0,0,1,2.7-5.1,21.23,21.23,0,0,0,2.5-5.1c0,.1.1.4.7.4.3,0,.4.3.7.5a4.7,4.7,0,0,1,.6.9l.1.1C685.83,115.1,685.93,115.3,686,115.4Z"/><path class="cls-77" d="M686,115.4h0c-.1.3-1,3.2-1.5,5s-2.2,8.1-3.7,11.1c0,.1,0,.1-.1.2s-.2.3-.2.4,0,.1-.1.2h0c-.1.1-.1.3-.2.4a3.75,3.75,0,0,1-2.7,2h-.2c-1.9,0-6.4-8.2-7.8-10.7a23.61,23.61,0,0,1,2-1.3c1.3,2.5,5.3,9.6,6.7,9.6.7,0,2.1-4.6,3.2-7.3s3.5-10.7,3.5-10.7a4.7,4.7,0,0,1,.6.9l.1.1C685.83,115.1,685.93,115.3,686,115.4Z"/><path class="cls-26" d="M676.53,119a21.69,21.69,0,0,1-6.2,5.5,4.45,4.45,0,0,1-1.2.6c-.4-.5-5.3-8.3-5.8-11.1a1.09,1.09,0,0,1-.1-.5c-.6-3.6.4-4.9.6-5.1l.1-.1c2.2-2.7,5.9-2.8,7.9,1.2C672.83,111.4,674.83,115,676.53,119Z"/><path class="cls-95" d="M650.93,88.3c.5,3.2,3.2,8.1,4.5,8.6a6.43,6.43,0,0,0,2.2.4,2,2,0,0,0,2.2-1.8,10.78,10.78,0,0,1,.9-2.9c1-1.8,2.2-2.7,2.9-2.3s.5,1.4.5,1.4h.4a3.75,3.75,0,0,1,.1-.8,7.57,7.57,0,0,0,.1-1.5,5.68,5.68,0,0,1,1.1-3.3,9.66,9.66,0,0,0,1.5-2.8,5.69,5.69,0,0,0,.4-2.5,14,14,0,0,1-10,8.2c-7.5,1.6-6.8-4.4-6.7-4.6A8.44,8.44,0,0,0,650.93,88.3Z"/><path class="cls-19" d="M670.63,144.4a5.33,5.33,0,0,1-5.3,2.3c-.4-.1-.9-.2-1.4-.3h-.2c-5.3-1.2-12.3-4.9-14.2-7.6-2.3-3.4,0-21.6,3.6-28.5h0a4,4,0,0,1,3.8-2.2s7,2.7,9.3,5.4S672.53,141,670.63,144.4Z"/><path class="cls-66" d="M670.63,144.4a5.33,5.33,0,0,1-5.3,2.3c-.4-.1-.9-.2-1.4-.3,1.7.4,2.9-1.5,2.9-2.8s-1.7-21.6-3.6-27.3c-.5-1.7-7.8-5-10.1-6.1a4,4,0,0,1,3.8-2.2s7,2.7,9.3,5.4C668.53,116.3,672.53,141,670.63,144.4Z"/><path class="cls-66" d="M659.93,109.6s1.5-2.9,3.2-4a5.19,5.19,0,0,1,3.5-.9l2.6,1.9a5.18,5.18,0,0,0-3.2,1.2,17.18,17.18,0,0,0-2.7,3.6Z"/><path class="cls-66" d="M673.63,131.3a8.21,8.21,0,0,1-3.5,5.3l.5,4s1.7-1,3.3-4.5Z"/><path class="cls-96" d="M671.13,375.1a3.61,3.61,0,0,1-1.9,3.2L574.73,436a3.63,3.63,0,0,1-4,0l-15.9-9.7-4.7-2.9L501.93,394l-2.3-1.4-2.9-1.8a3.53,3.53,0,0,1-1.8-3,3.78,3.78,0,0,1,1.8-3.5l94.2-57.4a4.07,4.07,0,0,1,4,0l6.3,3.8,2.3,1.4,48.4,29.3,4.6,2.9,12.7,7.8A3.13,3.13,0,0,1,671.13,375.1Z"/><path class="cls-97" d="M496.73,370.2l94.2-57.5a3.88,3.88,0,0,1,3.9,0l74.4,45a3.79,3.79,0,0,1,0,6.5l-94.5,57.7a4.07,4.07,0,0,1-4,0l-74.2-45.3A3.83,3.83,0,0,1,496.73,370.2Z"/><path class="cls-98" d="M664.83,360.3a1.86,1.86,0,0,0-.7,1.3l-69.2-41.8a3.88,3.88,0,0,0-3.9,0l-90.6,55.3-5.4-1.4V381h.1a3.73,3.73,0,0,0,1.7,2.9L571,429.2a4.07,4.07,0,0,0,4,0l94.5-57.7a3.47,3.47,0,0,0,1.6-2.5h.2v-7.8C671.13,361,665.93,359.8,664.83,360.3Z"/><path class="cls-37" d="M671.13,361v7.8h-.2a3.8,3.8,0,0,1-1.6,2.5L574.83,429a4.07,4.07,0,0,1-4,0l-15.9-9.7-4.8-2.9-53.4-32.6a3.58,3.58,0,0,1-1.7-2.9h-.1v-7.3l5.4,1.4,90.6-55.3a4.07,4.07,0,0,1,4,0l51.3,31,4.6,2.9,13.3,8c.2-.6.4-1.2.8-1.3C665.83,359.8,671.13,361,671.13,361Z"/><path class="cls-38" d="M671.13,361a3.61,3.61,0,0,1-1.9,3.2l-94.5,57.7a3.63,3.63,0,0,1-4,0l-15.9-9.7-4.7-2.9-48.2-29.5-2.3-1.4-2.9-1.8a3.53,3.53,0,0,1-1.8-3,3.78,3.78,0,0,1,1.8-3.5l94.2-57.4a4.07,4.07,0,0,1,4,0l6.3,3.8,2.3,1.4,48.4,29.3,4.6,2.9,12.7,7.8A3.36,3.36,0,0,1,671.13,361Z"/><polygon class="cls-29" points="555.03 412.1 555.03 412.2 555.03 419.3 550.23 416.4 550.13 409.3 550.23 409.3 646.13 350.8 651.93 347.2 656.63 350.1 650.73 353.6 555.03 412.1"/><polygon class="cls-21" points="595.53 329.4 580.43 338.7 611.03 357.4 626.33 348 595.53 329.4"/><path class="cls-99" d="M884.93,424.9l67.8,36.8,95.7-58.8-69.3-37.7a4.26,4.26,0,0,0-4.1.1l-90.2,55.4A2.44,2.44,0,0,0,884.93,424.9Z"/><path class="cls-29" d="M885.53,414.4l64.4,35-.7-24.9-55.5-19.4-8.4,5.2A2.39,2.39,0,0,0,885.53,414.4Z"/><polygon class="cls-30" points="952.93 447.7 888.83 412.9 888.13 386.6 952.23 421.5 952.93 447.7"/><path class="cls-31" d="M883.83,387.2a2.69,2.69,0,0,0,1.2,2.5l64.3,34.9.7,24.9-64.4-35a2.3,2.3,0,0,1-1.2-1.7h0s.3,2.5.3,3.5a2.62,2.62,0,0,0,1.2,2.4l67.8,36.8,95.7-58.8L1024,382.9l24.6-15.2L979.33,330a4.26,4.26,0,0,0-4.1.1l-91.4,53.7C883.73,383.9,883.83,386.1,883.83,387.2Z"/><polygon class="cls-32" points="952.73 422.4 953.63 455.4 1049.43 396.6 1048.43 363.7 952.73 422.4"/><polygon class="cls-21" points="959.93 422.6 960.63 448 967.93 443.5 967.23 418.1 959.93 422.6"/><polygon class="cls-21" points="969.53 416.7 970.33 442.1 972.83 440.5 972.13 415.1 969.53 416.7"/><polygon class="cls-21" points="974.33 413.8 975.03 439.2 977.63 437.6 976.93 412.2 974.33 413.8"/><polygon class="cls-21" points="1038.03 374.7 1038.73 400.1 1041.33 398.5 1040.63 373.1 1038.03 374.7"/><path class="cls-29" d="M884.93,385.6l67.8,36.8,95.7-58.8-69.3-37.7a4.26,4.26,0,0,0-4.1.1l-90.2,55.4A2.44,2.44,0,0,0,884.93,385.6Z"/><path class="cls-100" d="M848.33,61c0,.5-1,1-2.2,1s-2.2-.4-2.2-1,1-1,2.2-1S848.33,60.5,848.33,61Z"/><rect class="cls-100" x="843.97" y="51.8" width="4.5" height="9.2" transform="translate(-0.47 7.5) rotate(-0.51)"/><path class="cls-19" d="M848.23,51.8c0,.5-1,1-2.2,1s-2.2-.4-2.2-1,1-1,2.2-1S848.23,51.3,848.23,51.8Z"/><path class="cls-20" d="M855.53,35s4.4,7.8,5.6,10,13.5,7.5,29.1-4.4c7-5.3,9.7-14.2,8.2-16.9s-6.6-11.7-6.6-11.7Z"/><polygon class="cls-68" points="842.43 37.4 884.23 38.9 903.93 3.3 862.03 1.8 842.43 37.4"/><polygon class="cls-68" points="903.03 1.5 903.93 3.3 901.73 4.6 900.23 4 903.03 1.5"/><polygon class="cls-68" points="841.43 35.6 842.43 37.4 845.63 34.5 841.43 35.6"/><polygon class="cls-20" points="841.43 35.6 883.23 37 903.03 1.5 861.03 0 841.43 35.6"/><path class="cls-19" d="M846.13,52.2a.37.37,0,0,1-.4-.4V35.6a.52.52,0,0,1,.2-.4l25.7-18.3c.2-.1.4-.1.5.1s.1.4-.1.5l-25.5,18.1v16C846.53,52,846.33,52.2,846.13,52.2Z"/><path class="cls-68" d="M874.13,17.4a2.42,2.42,0,1,1-2.1-2.7A2.45,2.45,0,0,1,874.13,17.4Z"/></g></g></svg>