<svg xmlns="http://www.w3.org/2000/svg" viewBox="0 0 1231 476.54"><defs><style>.cls-1{fill:#ededed;}</style></defs><title>Recurso 1</title><g id="Capa_2" data-name="Capa 2"><g id="fondo_ilustracion" data-name="fondo ilustracion"><path class="cls-1" d="M54.23,171.22c76.88-52.34,240.61-7.6,325.88,32.58,34.05,16,61,33.9,106.14,35.42,76.43,2.56,139-43.88,150.08-52.42C743.22,104.71,853.1-.16,1008.69,0c54.29.06,111.44,12.42,156.4,42.89,22.43,15.19,41.28,35.12,53.46,58.91,14.72,28.72,14.53,57.41,8.94,88.55a275.68,275.68,0,0,1-23.15,71.53C1141.84,390.54,983,443,939,456c-270.47,79.61-388.3-101-733-48.88-49,7.42-114.38,21.31-158.38-9.91C-17.76,350.79-16,219.07,54.23,171.22Z"/></g></g></svg>