<svg xmlns="http://www.w3.org/2000/svg" viewBox="0 0 25 28.04"><defs><style>.cls-1{fill:#fff;}</style></defs><title>Recurso 2</title><g id="Capa_2" data-name="Capa 2"><g id="formaciones_pendientes" data-name="formaciones pendientes"><g id="_4" data-name="4"><path class="cls-1" d="M21.73,3h-.84V2.12a2.06,2.06,0,1,0-4.11,0V3H14.67V2.12a2.06,2.06,0,1,0-4.11,0V3H8.46V2.12A2.1,2.1,0,0,0,6.4,0,2.09,2.09,0,0,0,4.35,2.12V3H3.27A3.27,3.27,0,0,0,0,6.31V24.77A3.28,3.28,0,0,0,3.27,28H21.73A3.28,3.28,0,0,0,25,24.77V6.31A3.27,3.27,0,0,0,21.73,3Zm-3.8-.92a.9.9,0,1,1,1.8,0V5.88a.9.9,0,1,1-1.8,0Zm-6.21,0a.9.9,0,1,1,1.8,0V5.88a.9.9,0,1,1-1.8,0Zm-6.22,0a.94.94,0,0,1,.9-1,.94.94,0,0,1,.9,1V5.88a.9.9,0,1,1-1.8,0ZM23.08,24.77a1.35,1.35,0,0,1-1.35,1.34H3.27a1.35,1.35,0,0,1-1.35-1.34V7.84H23.08Z"/></g></g></g></svg>