<?xml version="1.0" encoding="utf-8"?>
<!-- Generator: Adobe Illustrator 24.0.2, SVG Export Plug-In . SVG Version: 6.00 Build 0)  -->
<svg version="1.1" xmlns="http://www.w3.org/2000/svg" xmlns:xlink="http://www.w3.org/1999/xlink" x="0px" y="0px"
	 viewBox="0 0 25 28" style="enable-background:new 0 0 25 28;" xml:space="preserve">
<style type="text/css">
	.st0{fill:#FFFFFF;}
	.st1{fill:#FFB900;}
</style>
<g id="Fondo">
	<rect x="1.5" y="7.5" class="st0" width="22" height="19.1"/>
	<rect x="17.6" y="0.8" class="st0" width="2.5" height="6.5"/>
	<rect x="11.4" y="0.7" class="st0" width="2.5" height="6.5"/>
	<rect x="5.2" y="0.8" class="st0" width="2.5" height="6.5"/>
</g>
<g id="Capa_1">
	<title>Recurso 2</title>
	<g id="Capa_2_1_">
		<g id="formaciones_pendientes">
			<g id="_4">
				<path class="st1" d="M21.7,3h-0.8V2.1C21,1,20.1,0,19-0.1c-1.1-0.1-2.1,0.8-2.2,1.9c0,0.1,0,0.2,0,0.3V3h-2.1V2.1
					C14.7,1,13.9,0,12.8-0.1s-2.1,0.8-2.2,1.9c0,0.1,0,0.2,0,0.3V3H8.5V2.1C8.5,1,7.6,0,6.4,0C5.2,0,4.3,1,4.3,2.1V3H3.3
					C1.5,3,0,4.5,0,6.3c0,0,0,0,0,0v18.5C0,26.6,1.5,28,3.3,28h18.5c1.8,0,3.2-1.4,3.3-3.2V6.3C25,4.5,23.6,3,21.7,3
					C21.8,3,21.7,3,21.7,3z M17.9,2.1c0-0.5,0.4-0.9,0.9-0.9c0.5,0,0.9,0.4,0.9,0.9c0,0,0,0,0,0v3.8c0,0.5-0.4,0.9-0.9,0.9
					c-0.5,0-0.9-0.4-0.9-0.9c0,0,0,0,0,0V2.1z M11.7,2.1c0-0.5,0.4-0.9,0.9-0.9c0.5,0,0.9,0.4,0.9,0.9v3.8c0,0.5-0.4,0.9-0.9,0.9
					c-0.5,0-0.9-0.4-0.9-0.9V2.1z M5.5,2.1c0-0.5,0.4-1,0.9-1c0,0,0,0,0,0c0.5,0,0.9,0.5,0.9,1c0,0,0,0,0,0v3.8
					c0,0.5-0.4,0.9-0.9,0.9S5.5,6.4,5.5,5.9c0,0,0,0,0,0L5.5,2.1z M23.1,24.8c0,0.7-0.6,1.3-1.4,1.3H3.3c-0.7,0-1.3-0.6-1.4-1.3V7.8
					h21.2V24.8z"/>
			</g>
		</g>
	</g>
</g>
</svg>
