<svg xmlns="http://www.w3.org/2000/svg" viewBox="0 0 135.1 104.39"><defs><style>.cls-1{fill:#fff;}.cls-2{fill:#ededed;}.cls-3{fill:#106ebe;}</style></defs><title>Recurso 1</title><g id="Capa_2" data-name="Capa 2"><g id="Capa_1-2" data-name="Capa 1"><path class="cls-1" d="M134.2,15.4V86c-32.8,18-70.8,26.1-97.9,8.9C4.9,75,.3,29,0,6H124.7A9.41,9.41,0,0,1,134.2,15.4Z"/><path class="cls-2" d="M135.1,9.4V80c-32.8,18-70.8,26.1-97.9,8.9C5.9,69.1,1.2,23.1,1,0H125.7A9.39,9.39,0,0,1,135.1,9.4Z"/><path class="cls-3" d="M111.8,40.4a1,1,0,0,0-1,1v3.5a3.59,3.59,0,0,1-3.6,3.6h-5.6a.91.91,0,0,0-.7.3l-6.8,6.8V49.5a1,1,0,0,0-1-1h-14a3.59,3.59,0,0,1-3.6-3.6V30a3.59,3.59,0,0,1,3.6-3.6h28.1a3.59,3.59,0,0,1,3.6,3.6v3.5a1,1,0,1,0,2,0V30a5.59,5.59,0,0,0-5.6-5.6H79.1A5.59,5.59,0,0,0,73.5,30V42.6H66.4a3.8,3.8,0,0,0-3.8,3.8v9a3.8,3.8,0,0,0,3.8,3.8h3l4.9,4.9a.91.91,0,0,0,.7.3.6.6,0,0,0,.4-.1,1,1,0,0,0,.6-.9V59.2h7.6a3.8,3.8,0,0,0,3.8-3.8v-5h4.9v7.5a.87.87,0,0,0,.6.9c.1.1.2.1.4.1a.91.91,0,0,0,.7-.3l8.2-8.2h5.2a5.59,5.59,0,0,0,5.6-5.6V41.3A1.29,1.29,0,0,0,111.8,40.4ZM85.3,55.5a1.79,1.79,0,0,1-1.8,1.8H74.9a1,1,0,0,0-1,1v2.8l-3.5-3.5a.91.91,0,0,0-.7-.3H66.3a1.79,1.79,0,0,1-1.8-1.8v-9a1.79,1.79,0,0,1,1.8-1.8h7.1V45A5.59,5.59,0,0,0,79,50.6h6.2v4.9Z"/><path class="cls-3" d="M102.7,30.8H83.6a1,1,0,0,0,0,2h19.1a1,1,0,1,0,0-2Z"/><path class="cls-3" d="M103.7,37.1a1,1,0,0,0-1-1H83.6a1,1,0,0,0,0,2h19.1A.94.94,0,0,0,103.7,37.1Z"/><path class="cls-3" d="M83.6,41.4a1,1,0,0,0,0,2h11a1,1,0,0,0,0-2Z"/><path class="cls-3" d="M111.8,36.5a1,1,0,0,0,0,2,1,1,0,1,0,0-2Z"/></g></g></svg>