<svg xmlns="http://www.w3.org/2000/svg" xmlns:xlink="http://www.w3.org/1999/xlink" viewBox="0 0 448.85 231.21"><defs><style>.cls-1{fill:url(#linear-gradient);}.cls-2{fill:#2875df;}.cls-3{fill:#75bcfc;}.cls-4{fill:#4594f4;}.cls-5{fill:#347ee8;}.cls-6{fill:#fff;}.cls-7{fill:#205ce2;}.cls-8{fill:url(#linear-gradient-2);}.cls-9{fill:#b4bbe1;}.cls-10{fill:#dae3f2;}.cls-11{fill:#ced2ef;}.cls-12{fill:#c5c8e8;}.cls-13{fill:url(#linear-gradient-3);}.cls-14{fill:#4588ff;}.cls-15{fill:#80b4ff;}.cls-16{fill:#3081e2;}.cls-17{fill:url(#linear-gradient-4);}.cls-18{fill:#c2e9f3;}.cls-19{fill:#8fc0c8;}.cls-20{fill:url(#linear-gradient-5);}.cls-21{opacity:0.35;}.cls-22{fill:none;stroke:#000;stroke-linecap:round;stroke-linejoin:round;}.cls-23{fill:#424242;}</style><linearGradient id="linear-gradient" x1="224.96" y1="107.87" x2="152.88" y2="149.48" gradientUnits="userSpaceOnUse"><stop offset="0" stop-color="#b4bbe1" stop-opacity="0.1"/><stop offset="0.63" stop-color="#b4bbe1" stop-opacity="0.24"/><stop offset="1" stop-color="#b4bbe1" stop-opacity="0.3"/></linearGradient><linearGradient id="linear-gradient-2" x1="284.49" y1="123.26" x2="212.41" y2="164.88" xlink:href="#linear-gradient"/><linearGradient id="linear-gradient-3" x1="139.6" y1="207" x2="208.13" y2="207" xlink:href="#linear-gradient"/><linearGradient id="linear-gradient-4" x1="0" y1="185.5" x2="146.02" y2="185.5" xlink:href="#linear-gradient"/><linearGradient id="linear-gradient-5" x1="311.56" y1="142.54" x2="448.08" y2="142.54" xlink:href="#linear-gradient"/></defs><title>Recurso 1</title><g id="Capa_2" data-name="Capa 2"><g id="No_encontramos_solicitudes" data-name="No encontramos solicitudes"><polygon class="cls-1" points="146.61 138.62 171.63 153.03 231.23 118.73 206.4 104.23 146.61 138.62"/><path class="cls-2" d="M208.42,2,152.74,34,171.63,44.9l39.93-32.53V3.77A2.09,2.09,0,0,0,208.42,2Z"/><polygon class="cls-3" points="152.73 37.01 208.1 5.12 228.03 16.62 172.68 48.5 152.73 37.01"/><path class="cls-4" d="M229.55,13.16a2.32,2.32,0,0,0-2.42-.23l-55.5,32L152.74,34,208.42,2a2,2,0,0,1,1.81-.12h0S208.29.88,207.52.42a2.26,2.26,0,0,0-2.33-.16L146.61,34v98.42l21.94-12.64V145.1l59.91-34.5a3.62,3.62,0,0,0,1.81-3.14l1.87-92.84S230.39,13.7,229.55,13.16Z"/><polygon class="cls-5" points="171.63 48.44 146.61 34.02 146.61 132.45 171.63 146.86 171.63 48.44"/><polygon class="cls-6" points="168.23 53.75 148.94 42.64 148.94 50.17 168.23 61.28 168.23 53.75"/><polygon class="cls-6" points="168.23 63.69 148.94 52.58 148.94 55.19 168.23 66.3 168.23 63.69"/><polygon class="cls-6" points="168.23 68.54 148.94 57.43 148.94 60.03 168.23 71.14 168.23 68.54"/><polygon class="cls-6" points="168.23 134.06 148.94 122.95 148.94 125.55 168.23 136.67 168.23 134.06"/><path class="cls-7" d="M230.21,14.69,171.63,48.44v98.42l59.9-34.5a3.63,3.63,0,0,0,1.82-3.14V16.5A2.1,2.1,0,0,0,230.21,14.69Z"/><polygon class="cls-8" points="206.14 154.02 231.17 168.43 290.76 134.13 265.93 119.63 206.14 154.02"/><path class="cls-9" d="M268,16.55,212.28,48.62l18.89,10.87L271.09,27V18.36A2.09,2.09,0,0,0,268,16.55Z"/><polygon class="cls-10" points="212.27 51.61 267.63 19.71 287.57 31.21 232.22 63.1 212.27 51.61"/><path class="cls-11" d="M289.08,27.76a2.26,2.26,0,0,0-2.41-.23l-55.5,32L212.28,48.62,268,16.55a2,2,0,0,1,1.81-.11v0s-1.94-1-2.71-1.4a2.26,2.26,0,0,0-2.34-.17L206.14,48.6V147l22-12.64V159.7L288,125.19a3.61,3.61,0,0,0,1.81-3.13l1.87-92.84S289.93,28.29,289.08,27.76Z"/><polygon class="cls-12" points="231.17 63.03 206.14 48.62 206.14 147.04 231.17 161.46 231.17 63.03"/><polygon class="cls-6" points="227.76 68.35 208.47 57.24 208.47 64.77 227.76 75.88 227.76 68.35"/><polygon class="cls-6" points="227.76 78.29 208.47 67.17 208.47 69.78 227.76 80.89 227.76 78.29"/><polygon class="cls-6" points="227.76 83.13 208.47 72.02 208.47 74.63 227.76 85.74 227.76 83.13"/><polygon class="cls-6" points="227.76 148.66 208.47 137.54 208.47 140.15 227.76 151.26 227.76 148.66"/><path class="cls-9" d="M289.75,29.29,231.17,63v98.43L291.07,127a3.61,3.61,0,0,0,1.81-3.13V31.1A2.09,2.09,0,0,0,289.75,29.29Z"/><path class="cls-13" d="M203.62,192.59l-59.1,34.1-4.92-2.82,59.1-34.11,9.22-2.44a.17.17,0,0,1,.17.27Z"/><path class="cls-9" d="M198.8,184.17l8-1.9a.29.29,0,0,1,.28.48l-5.42,6Z"/><path class="cls-14" d="M207.06,182.75l-2.13,2.35a3.22,3.22,0,0,0-.83-1.81,2.35,2.35,0,0,0-.33-.3l3-.71A.28.28,0,0,1,207.06,182.75Z"/><path class="cls-14" d="M143.39,216.51l.75,1.33,2,3.42L201,189.19h0a1.85,1.85,0,0,0,.33-.21,1.9,1.9,0,0,0,.63-.86,3,3,0,0,0-.16-2.36,3.51,3.51,0,0,0-.54-.8h0a2.49,2.49,0,0,0-2-.89,1.68,1.68,0,0,0-.59.17l-.1.05-.12.07,0,0,0,0Z"/><path class="cls-15" d="M143.39,216.51l.75,1.33,1.91-.57L201.31,185h0a2.49,2.49,0,0,0-2-.89,1.68,1.68,0,0,0-.59.17l-.1.05-.12.07,0,0,0,0Z"/><path class="cls-16" d="M142.59,219.94a2.51,2.51,0,0,0,3.16,1.53h0a1.42,1.42,0,0,0,.33-.21,2,2,0,0,0,.63-.86,3.07,3.07,0,0,0-.16-2.36,2.74,2.74,0,0,0-2.59-1.7,1.69,1.69,0,0,0-.58.17l-.1.05-.12.07,0,0A2.64,2.64,0,0,0,142.59,219.94Z"/><path class="cls-17" d="M146,180.26A3.12,3.12,0,0,1,144.5,183L66.23,230.73a3.08,3.08,0,0,1-3.3,0l-13.18-8-3.93-2.41L5.88,195.93,4,194.73,1.5,193.24A3,3,0,0,1,0,190.71a3.07,3.07,0,0,1,1.49-2.85l78-47.62a3.23,3.23,0,0,1,3.29,0L88,143.42,90,144.58l40.1,24.27,3.86,2.33,10.57,6.39A3.13,3.13,0,0,1,146,180.26Z"/><path class="cls-18" d="M1.51,176.15l78-47.6a3.15,3.15,0,0,1,3.28,0l61.69,37.32a3.17,3.17,0,0,1,0,5.41L66.23,219a3.16,3.16,0,0,1-3.3,0L1.51,181.55A3.17,3.17,0,0,1,1.51,176.15Z"/><path class="cls-19" d="M140.75,168a1.52,1.52,0,0,0-.62,1.13L82.8,134.4a3.15,3.15,0,0,0-3.28,0l-75,45.77C2.56,179.65,0,179,0,179v6l.09,0a3.08,3.08,0,0,0,1.42,2.36l61.42,37.48a3.16,3.16,0,0,0,3.3,0l78.27-47.76a3.06,3.06,0,0,0,1.35-2.06H146v-6.53S141.61,167.54,140.75,168Z"/><path class="cls-15" d="M146,168.56v6.51h-.16a3,3,0,0,1-1.36,2.05L66.23,224.89a3.25,3.25,0,0,1-3.3,0l-13.14-8-4-2.46L1.5,187.4A3,3,0,0,1,.09,185H0v-6s2.57.64,4.5,1.16l75-45.76a3.19,3.19,0,0,1,3.29,0l42.43,25.67,3.86,2.33,11,6.67c.12-.48.28-1,.64-1.12C141.6,167.52,146,168.56,146,168.56Z"/><path class="cls-14" d="M146,168.56a3.13,3.13,0,0,1-1.52,2.69L66.23,219a3,3,0,0,1-3.3,0l-13.18-8-3.93-2.41L5.88,184.23,4,183,1.5,181.54A3,3,0,0,1,0,179a3.1,3.1,0,0,1,1.49-2.86l78-47.61a3.23,3.23,0,0,1,3.29,0L88,131.72,90,132.88l40.1,24.27,3.86,2.33,10.57,6.39A3.13,3.13,0,0,1,146,168.56Z"/><polygon class="cls-9" points="49.75 210.87 49.75 210.99 49.79 216.86 45.77 214.4 45.73 208.62 45.81 208.58 125.25 160.08 130.07 157.15 133.93 159.48 129.11 162.41 49.75 210.87"/><polygon class="cls-6" points="83.41 142.38 70.81 150.07 96.21 165.53 108.86 157.81 83.41 142.38"/><path class="cls-20" d="M312.59,152.19l56.18,30.51L448.08,134l-57.45-31.2a3.43,3.43,0,0,0-3.42.1L312.5,148.77A2,2,0,0,0,312.59,152.19Z"/><path class="cls-9" d="M313.11,143.54l53.4,29-.59-20.6-46-16.08L313,140.12A2,2,0,0,0,313.11,143.54Z"/><polygon class="cls-10" points="368.92 171.07 315.82 142.24 315.22 120.48 368.3 149.31 368.92 171.07"/><path class="cls-11" d="M311.69,121a2.16,2.16,0,0,0,1,2.06l53.23,28.91.59,20.6-53.4-29a2,2,0,0,1-1-1.4h0s.19,2,.21,2.87a2.15,2.15,0,0,0,1,2l56.18,30.51,79.31-48.71-21-11.43,20.4-12.53-57.45-31.2a3.43,3.43,0,0,0-3.42.1l-75.74,44.43S311.7,120,311.69,121Z"/><polygon class="cls-12" points="368.77 150.19 369.54 177.48 448.85 128.78 448.08 101.48 368.77 150.19"/><polygon class="cls-6" points="374.74 150.3 375.33 171.34 381.4 167.62 380.8 146.57 374.74 150.3"/><polygon class="cls-6" points="382.75 145.38 383.34 166.42 385.44 165.13 384.85 144.09 382.75 145.38"/><polygon class="cls-6" points="386.65 142.98 387.25 164.02 389.35 162.73 388.75 141.69 386.65 142.98"/><polygon class="cls-6" points="439.45 110.56 440.04 131.6 442.14 130.31 441.55 109.27 439.45 110.56"/><path class="cls-9" d="M312.59,119.68l56.18,30.51,79.31-48.71-57.45-31.2a3.43,3.43,0,0,0-3.42.09L312.5,116.26A2,2,0,0,0,312.59,119.68Z"/><g id="telas_de_araña" data-name="telas de araña" class="cls-21"><path class="cls-22" d="M314.94,117.5c-17-28-26-83-26-83s25,50,50,68"/><path class="cls-22" d="M358.94,90.5c-31-18-70-56-70-56s-2,77-9,132"/><path class="cls-22" d="M288.94,34.5s-13,80-44,141"/><path class="cls-22" d="M307.07,51.17A8,8,0,0,1,299.81,54s-.67,3.08-6.77,1.78c0,0,.29,2.17-4.9,1.44a2.66,2.66,0,0,1-3.49-.79"/><path class="cls-22" d="M318.63,61.11s-4.43,6.63-11.56,4.51c0,0-3.08,4.84-10.6,3.36,0,0-3.28,4.55-8.9,1.53,0,0-2.1,4.08-6.36,1"/><path class="cls-22" d="M332.15,72s-1.68,10.75-14.44,8.62c0,0-5,10.15-15.9,6.51,0,0-6.76,9.72-15.31,3,0,0-3.46,4.26-10-.21"/><path class="cls-22" d="M350,84.91s-3.85,16-17.45,12.31A22.86,22.86,0,0,1,310.88,110s-10,9.2-25.95,4.34a15.93,15.93,0,0,1-15.31-.91"/><path class="cls-22" d="M262,135.86s9,9.88,20.95,2.76c0,0,24,10.88,34-6.12"/><path class="cls-22" d="M254.43,155s9.49,12.11,26.5,3.29c0,0,31,4.17,49-8.83"/><path class="cls-22" d="M297.94,115.5s2.91,22.75,9.46,42.37"/><path class="cls-22" d="M78.94,136.5c32-25,71-95,71-95s-19,69-43,108"/><path class="cls-22" d="M133.94,166.5c7.39-15.34,17-127,17-127s13,106,31,155"/><path class="cls-22" d="M133.94,68.09s2.66,3.7,6.83,3.06c0,0,1.91,2.7,7,1.53,0,0,1.53,4.26,7.83.54"/><path class="cls-22" d="M127.41,78.17s3,6.31,9.29,4.82a8.14,8.14,0,0,0,9.24,2.51s4.37,5,11.69.51"/><path class="cls-22" d="M119,90.44s4.26,9.06,13.08,5.06c0,0,3.24,6.6,13,2.3,0,0,5.25,5.69,14.52.7"/><path class="cls-22" d="M137.94,61.5s2.89,3.2,5.45,1.6c0,0,1,3,5.25,1.19,0,0,2.22,2.93,5.76.57"/><path class="cls-22" d="M110.36,102.38s6.77,10,16.68,6.05a19.46,19.46,0,0,0,16.35,2.7s5.84,6.13,18.7,1.25"/><path class="cls-22" d="M98.63,117s11,8.4,22.16,6c0,0,7.18,10.72,20.67,5.14,0,0,13.65,4.59,23.57,0"/><path class="cls-22" d="M84.54,131.75s12.95,12.4,25.18,13.07c0,0,11,13.59,27.63,9.14a58.09,58.09,0,0,0,33.14,0"/><path class="cls-22" d="M137.94,177.5s23.09,8,38.55,0"/><path class="cls-22" d="M151.94,114.26s1,74.24-3,86.24"/><path class="cls-22" d="M151.63,168.43s9.47,2.07,21.89-1.93"/><path class="cls-22" d="M150.5,193.1s20.85,2.16,30.19-2.13"/></g><path class="cls-23" d="M269.09,190.74c-4,.35-4.29-6.69-2.43-9s5.66-1,7.13,1c1,1.43,0,3.74-.73,5.09s-2.06,3-3.91,2.82C269.27,190.66,269.39,190.64,269.09,190.74Z"/><path class="cls-23" d="M269.16,180.54c-.55-.14-.76-1.21-.68-1.71a1.32,1.32,0,0,1,.69-1,3.67,3.67,0,0,1,4.1.42c1,.83,1.64,2.5.27,3.33A3.48,3.48,0,0,1,269.16,180.54Z"/><path class="cls-23" d="M270.46,177.86c-.5-1.68,2.39-2.14,3.15-.71C274.52,178.87,271.37,178.44,270.46,177.86Z"/><path class="cls-23" d="M272.57,177a1.48,1.48,0,0,1-.07-2.2c-.88-.68-2.78,3.15,0,2.19Z"/><path class="cls-23" d="M272.23,176.7c1.08.24,1.47-.39,1.67-1.43,1.1.18-.45,4.18-1.62,1.47Z"/><path class="cls-23" d="M269.49,178.84a2.48,2.48,0,0,1-.41-1,11.56,11.56,0,0,1-.21-1.77,5.53,5.53,0,0,0-.94-2.39,12.34,12.34,0,0,0-1.33-1.47c-.33-.35-1.14-.82-1.14-1.33s-.15-1.22.33-.74c.23.23,0,.6.18.88s.92.67,1.19.92a10,10,0,0,1,1.13,1.22,4.55,4.55,0,0,1,1.49,2.16c.08.25,0,.5,0,.75s.14.25.17.41-.06.54,0,.8.32.57.12.93C269.79,178.78,269.82,178.64,269.49,178.84Z"/><path class="cls-23" d="M268.4,181.22a4.86,4.86,0,0,0-1.3.09c-.53,0-1.06-.05-1.58-.06l-1.7-.05a5.44,5.44,0,0,0-2.68.42,4.21,4.21,0,0,0-1,1,17.29,17.29,0,0,0-1,1.5l-.45.7a8.22,8.22,0,0,1-.93,1.39,10.35,10.35,0,0,1-1.49,1.32c-.25.17-.73.26-.89.54s.29.46.59.48c.78,0,1.63-.78,2.14-1.38a10.79,10.79,0,0,0,.8-1.3c.28-.44.68-.76,1-1.17a16.79,16.79,0,0,0,1-1.41A2.61,2.61,0,0,1,262,182a5.85,5.85,0,0,1,1.51,0c.61-.05,1-.25,1.54-.05a3.56,3.56,0,0,0,2.47,0c.38-.13,1.05.18,1.17-.25C268.8,181.48,268.73,181.29,268.4,181.22Z"/><path class="cls-23" d="M269,178.73a28.06,28.06,0,0,0-2-2.45,10.92,10.92,0,0,0-1.51-1.18c-.79-.5-1.7-.73-2.5-1.2a20.33,20.33,0,0,1-2.23-1.24,1,1,0,0,0-.72-.31c-.3,0-.08.59.08.79.35.41.84.42,1.31.6a43.91,43.91,0,0,1,3.92,2.17c.93.56,1.25,1.4,1.92,2.29s.46,1.17,1.32,1.78,1.41.51,1.26-.55C269.82,179.11,269.26,178.5,269,178.73Z"/><path class="cls-23" d="M268.3,179.72a8.67,8.67,0,0,1-1.93-.33c-.71-.14-1.39-.3-2.08-.48-.51-.14-1.08-.12-1.61-.21s-.78-.24-1.18-.28c-1.44-.16-2.44.85-3.12,2a8.76,8.76,0,0,0-1.25,2.13,2.38,2.38,0,0,1-1.06,1.68,3.83,3.83,0,0,1-1.28.63c-.32.1-1.14.38-.62.75.31.23.83.08,1.17,0,1.18-.25,1.65-1.47,2.21-2.41a8.9,8.9,0,0,1,.85-1.62,6.11,6.11,0,0,0,.85-1.05,2.45,2.45,0,0,1,1.15-.91,6,6,0,0,1,1.36-.24c.39.07.8.08,1.19.11.55,0,2.62.34,3.19.45s.8.42,1.24.51.64.65,1,.62,1.61-.44.89-1.13C269,179.66,268.52,179.85,268.3,179.72Z"/><path class="cls-23" d="M273.92,180.16a2.44,2.44,0,0,0,.87-.6,10.24,10.24,0,0,0,1.16-1.37A5.47,5.47,0,0,1,278,176.7a12.18,12.18,0,0,1,1.91-.5c.47-.12,1.41-.07,1.69-.49s.79-.94.12-.8c-.32.07-.35.48-.63.64s-1.14.06-1.5.12a11.14,11.14,0,0,0-1.61.4,4.65,4.65,0,0,0-2.43,1c-.2.16-.26.43-.44.6s-.26.13-.37.25-.24.49-.44.68-.58.3-.6.71C273.71,179.94,273.75,179.81,273.92,180.16Z"/><path class="cls-23" d="M273.53,182.74c.28.06.79.61,1.05.79.43.3.91.54,1.35.81s1,.59,1.45.9a5.29,5.29,0,0,1,2,1.8,4.07,4.07,0,0,1,.29,1.35,13.64,13.64,0,0,1,0,1.81c0,.28,0,.56,0,.83a9.41,9.41,0,0,0,0,1.68,9.66,9.66,0,0,0,.53,1.91c.11.29.47.62.45.95s-.5.22-.76.07c-.67-.39-.94-1.54-1-2.32a13,13,0,0,1,0-1.53c0-.52-.15-1-.18-1.52s-.07-1.13,0-1.7a2.66,2.66,0,0,0-.33-1.67c-.31-.41-.83-.54-1.24-.86s-.67-.73-1.26-.89a3.54,3.54,0,0,1-2.09-1.31c-.24-.31-1-.42-.84-.84A.37.37,0,0,1,273.53,182.74Z"/><path class="cls-23" d="M274.13,180.24a29.64,29.64,0,0,1,3-.94,11,11,0,0,1,1.91-.16c.93,0,1.82.32,2.75.36a19.47,19.47,0,0,0,2.54.18.91.91,0,0,1,.77.14c.24.18-.25.53-.49.61-.52.16-.93-.11-1.43-.21a41.8,41.8,0,0,0-4.47-.33,7.23,7.23,0,0,0-2.85.87c-1,.36-1,.73-2.08.77s-1.46-.34-.76-1.15C273.27,180.14,274.07,179.92,274.13,180.24Z"/><path class="cls-23" d="M274.21,181.48a8.63,8.63,0,0,0,1.79.77c.68.28,1.34.52,2,.74.5.16,1,.49,1.46.7s.78.23,1.15.41c1.29.66,1.57,2.05,1.51,3.38A8.51,8.51,0,0,1,282,190a2.42,2.42,0,0,0,0,2,3.71,3.71,0,0,0,.73,1.22c.21.26.74.94.11,1-.39,0-.75-.38-1-.63-.86-.85-.58-2.14-.54-3.23a8.55,8.55,0,0,0,.18-1.81,6.22,6.22,0,0,1-.14-1.36,2.45,2.45,0,0,0-.47-1.39,6.8,6.8,0,0,0-1-.94c-.37-.16-.71-.37-1.06-.56s-2.38-1.14-2.92-1.36-.9-.09-1.32-.25-.89.2-1.2,0-1.1-1.24-.12-1.42C273.67,181.05,274,181.46,274.21,181.48Z"/></g></g></svg>