<svg xmlns="http://www.w3.org/2000/svg" viewBox="0 0 316.59 120.83"><defs><style>.cls-1{fill:#8ddbf4;}.cls-2{fill:#81d2e7;}</style></defs><title>Recurso 1</title><g id="Capa_2" data-name="Capa 2"><g id="Capa_1-2" data-name="Capa 1"><g id="Capa_2-2" data-name="Capa 2"><g id="Capa_8" data-name="Capa 8"><path class="cls-1" d="M314.45,93.26c-1.56.35-15.75,3-19.47-13.38a1.77,1.77,0,0,0-3.53.12,1.63,1.63,0,0,0,.15.65c3.72,16.43-10.23,20.13-11.79,20.48h-.13a1.76,1.76,0,0,0,.89,3.35c1.69-.38,15.75-3,19.47,13.39a1.76,1.76,0,0,0,2.08,1.31c.88.08,1.44-.89,1.21-1.92-3.73-16.4,10.22-20.12,11.78-20.48h.13a1.76,1.76,0,0,0,1.3-2.13.19.19,0,0,0,0-.07A1.76,1.76,0,0,0,314.45,93.26Zm-14.93,15A18.42,18.42,0,0,0,288,101.15a17.94,17.94,0,0,0,7.27-11.38,17.85,17.85,0,0,0,11.48,7.12,17.93,17.93,0,0,0-7.27,11.41Z"/><ellipse class="cls-2" cx="228.54" cy="47.4" rx="13.1" ry="2.04" transform="translate(65.08 214.01) rotate(-57.26)"/><ellipse class="cls-2" cx="228.14" cy="46.4" rx="2.04" ry="13.12" transform="translate(66.46 213.91) rotate(-57.51)"/><path class="cls-1" d="M88.82,36.33c-3.86.88-38.85,7.47-48-33a4.28,4.28,0,0,0-8.35,1.9C41.61,45.7,7.2,54.86,3.34,55.74L3,55.81a4.32,4.32,0,0,0-2.91,5,4.37,4.37,0,0,0,5.15,3.33c4.18-.94,38.85-7.47,48.05,33a4.36,4.36,0,0,0,5.12,3.23c2.07.21,3.57-2.16,3-4.73C52.2,55.14,86.61,46,90.47,45.08l.32-.07A4.45,4.45,0,0,0,94,39.61l0,0A4.37,4.37,0,0,0,88.82,36.33ZM52,73.42A45.24,45.24,0,0,0,23.64,55.86a44.24,44.24,0,0,0,18-28.07c7.88,11.05,18.73,15.68,28.28,17.56A44.42,44.42,0,0,0,52,73.42Z"/><ellipse class="cls-1" cx="184.61" cy="113.38" rx="8.82" ry="1.37" transform="translate(-10.59 207.36) rotate(-57.26)"/><ellipse class="cls-1" cx="184.56" cy="112.34" rx="1.37" ry="8.83" transform="matrix(0.54, -0.84, 0.84, 0.54, -9.33, 207.67)"/></g></g></g></g></svg>