<?xml version="1.0" encoding="utf-8"?>
<!-- Generator: Adobe Illustrator 24.0.2, SVG Export Plug-In . SVG Version: 6.00 Build 0)  -->
<svg version="1.1" id="Capa_1" xmlns="http://www.w3.org/2000/svg" xmlns:xlink="http://www.w3.org/1999/xlink" x="0px" y="0px"
	 viewBox="0 0 448.9 231.2" enable-background="new 0 0 448.9 231.2" xml:space="preserve">
<g id="libroErectoIzquierdo">
	<g>
		<g>
			<path fill="#2875DF" d="M208.4,2l-55.7,32l18.9,10.9l39.9-32.5V3.8c0-1.2-1-2.1-2.1-2.1C209.1,1.7,208.7,1.8,208.4,2z"/>
			<polygon fill="#75BCFC" points="152.7,37 208.1,5.1 228,16.6 172.7,48.5 			"/>
			<g>
				
					<linearGradient id="SVGID_1_" gradientUnits="userSpaceOnUse" x1="224.9606" y1="126.1303" x2="152.8794" y2="84.5197" gradientTransform="matrix(1 0 0 -1 0 234)">
					<stop  offset="0" style="stop-color:#B4BBE1;stop-opacity:0.1"/>
					<stop  offset="0.63" style="stop-color:#B4BBE1;stop-opacity:0.24"/>
					<stop  offset="1" style="stop-color:#B4BBE1;stop-opacity:0.3"/>
				</linearGradient>
				<polygon fill="url(#SVGID_1_)" points="146.6,138.6 171.6,153 231.2,118.7 206.4,104.2 				"/>
				<path fill="#4594F4" d="M229.6,13.2c-0.7-0.5-1.6-0.6-2.4-0.2l-55.5,32L152.7,34l55.7-32c0.5-0.3,1.2-0.4,1.8-0.1l0,0
					c0,0-1.9-1-2.7-1.5c-0.7-0.5-1.6-0.5-2.3-0.2L146.6,34v98.4l21.9-12.6v25.3l59.9-34.5c1.1-0.6,1.8-1.8,1.8-3.1l1.9-92.8
					C232.1,14.6,230.4,13.7,229.6,13.2z"/>
				<path fill="#205CE2" d="M230.2,14.7l-58.6,33.8v98.4l59.9-34.5c1.1-0.6,1.8-1.8,1.8-3.1V16.5c0-1.2-1-2.1-2.1-2.1
					C230.9,14.4,230.5,14.5,230.2,14.7z"/>
			</g>
		</g>
		<polygon fill="#347EE8" points="171.6,48.4 146.6,34 146.6,132.4 171.6,146.9 		"/>
		<polygon fill="#FFFFFF" points="168.2,53.8 148.9,42.6 148.9,50.2 168.2,61.3 		"/>
		<polygon fill="#FFFFFF" points="168.2,63.7 148.9,52.6 148.9,55.2 168.2,66.3 		"/>
		<polygon fill="#FFFFFF" points="168.2,68.5 148.9,57.4 148.9,60 168.2,71.1 		"/>
	</g>
	<polygon fill="#FFFFFF" points="168.2,134.1 148.9,122.9 148.9,125.6 168.2,136.7 	"/>
</g>
<g id="libroErectoDerecho">
	
		<linearGradient id="SVGID_2_" gradientUnits="userSpaceOnUse" x1="284.4873" y1="110.7334" x2="212.4127" y2="69.1165" gradientTransform="matrix(1 0 0 -1 0 234)">
		<stop  offset="0" style="stop-color:#B4BBE1;stop-opacity:0.1"/>
		<stop  offset="0.63" style="stop-color:#B4BBE1;stop-opacity:0.24"/>
		<stop  offset="1" style="stop-color:#B4BBE1;stop-opacity:0.3"/>
	</linearGradient>
	<polygon fill="url(#SVGID_2_)" points="206.1,154 231.2,168.4 290.8,134.1 265.9,119.6 	"/>
	<path fill="#B4BBE1" d="M268,16.5l-55.7,32.1l18.9,10.9L271.1,27v-8.6c0-1.2-1-2.1-2.1-2.1C268.6,16.3,268.3,16.4,268,16.5z"/>
	<polygon fill="#DAE3F2" points="212.3,51.6 267.6,19.7 287.6,31.2 232.2,63.1 	"/>
	<path fill="#CED2EF" d="M289.1,27.8c-0.7-0.5-1.6-0.6-2.4-0.2l-55.5,32l-18.9-10.9L268,16.5c0.6-0.3,1.2-0.4,1.8-0.1l0,0
		c0,0-1.9-1-2.7-1.4c-0.7-0.5-1.6-0.6-2.3-0.2l-58.6,33.7V147l22-12.6v25.3l59.9-34.5c1.1-0.6,1.8-1.8,1.8-3.1l1.9-92.8
		C291.7,29.2,289.9,28.3,289.1,27.8z"/>
	<polygon fill="#C5C8E8" points="231.2,63 206.1,48.6 206.1,147 231.2,161.5 	"/>
	<polygon fill="#FFFFFF" points="227.8,68.3 208.5,57.2 208.5,64.8 227.8,75.9 	"/>
	<polygon fill="#FFFFFF" points="227.8,78.3 208.5,67.2 208.5,69.8 227.8,80.9 	"/>
	<polygon fill="#FFFFFF" points="227.8,83.1 208.5,72 208.5,74.6 227.8,85.7 	"/>
	<polygon fill="#FFFFFF" points="227.8,148.7 208.5,137.5 208.5,140.1 227.8,151.3 	"/>
	<path fill="#B4BBE1" d="M289.8,29.3L231.2,63v98.4l59.9-34.4c1.1-0.6,1.8-1.8,1.8-3.1V31.1c0-1.2-0.9-2.1-2.1-2.1
		C290.4,29,290.1,29.1,289.8,29.3z"/>
</g>
<g id="libroErectoIzquierdoHechado">
	<path fill="#8FC0C8" d="M140.8,168c-0.4,0.3-0.6,0.7-0.6,1.1l-57.3-34.7c-1-0.6-2.3-0.6-3.3,0l-75,45.8C2.6,179.6,0,179,0,179v6
		h0.1c0.1,1,0.6,1.8,1.4,2.4l61.4,37.5c1,0.6,2.3,0.6,3.3,0l78.3-47.8c0.7-0.5,1.2-1.2,1.4-2.1h0.1v-6.5
		C146,168.5,141.6,167.5,140.8,168z"/>
	<g>
		
			<linearGradient id="SVGID_3_" gradientUnits="userSpaceOnUse" x1="-7.450962e-03" y1="48.5005" x2="146.0009" y2="48.5005" gradientTransform="matrix(1 0 0 -1 0 234)">
			<stop  offset="0" style="stop-color:#B4BBE1;stop-opacity:0.1"/>
			<stop  offset="0.63" style="stop-color:#B4BBE1;stop-opacity:0.24"/>
			<stop  offset="1" style="stop-color:#B4BBE1;stop-opacity:0.3"/>
		</linearGradient>
		<path fill="url(#SVGID_3_)" d="M146,180.3c0,1.1-0.5,2.2-1.5,2.7l-78.3,47.7c-1,0.6-2.3,0.6-3.3,0l-13.2-8l-3.9-2.4L5.9,195.9
			L4,194.7l-2.5-1.5c-0.9-0.5-1.5-1.5-1.5-2.5c-0.1-1.2,0.5-2.3,1.5-2.9l78-47.6c1-0.6,2.3-0.6,3.3,0l5.2,3.2l2,1.2l40.1,24.3
			l3.9,2.3l10.6,6.4C145.5,178.1,146,179.2,146,180.3z"/>
		<path fill="#C2E9F3" d="M1.5,176.1l78-47.6c1-0.6,2.3-0.6,3.3,0l61.7,37.3c1.5,0.9,2,2.9,1.1,4.4c-0.3,0.4-0.6,0.8-1.1,1.1
			L66.2,219c-1,0.6-2.3,0.6-3.3,0L1.5,181.6c-1.5-0.9-2-2.9-1-4.4C0.7,176.8,1.1,176.4,1.5,176.1z"/>
		<path fill="#80B4FF" d="M146,168.6v6.5h-0.2c-0.1,0.8-0.6,1.6-1.4,2.1l-78.2,47.8c-1,0.6-2.3,0.6-3.3,0l-13.1-8l-4-2.5l-44.3-27
			c-0.8-0.5-1.4-1.4-1.4-2.4H0v-6c0,0,2.6,0.6,4.5,1.2l75-45.8c1-0.6,2.3-0.6,3.3,0l42.4,25.7l3.9,2.3l11,6.7c0.1-0.5,0.3-1,0.6-1.1
			C141.6,167.5,146,168.6,146,168.6z"/>
		<path fill="#4588FF" d="M146,168.6c0,1.1-0.6,2.1-1.5,2.7L66.2,219c-1,0.7-2.3,0.7-3.3,0l-13.2-8l-3.9-2.4L5.9,184.2L4,183
			l-2.5-1.5C0.6,181,0,180.1,0,179c-0.1-1.2,0.5-2.3,1.5-2.9l78-47.6c1-0.6,2.3-0.6,3.3,0l5.2,3.2l2,1.2l40.1,24.3l3.9,2.3l10.6,6.4
			C145.5,166.4,146,167.5,146,168.6z"/>
		<polygon fill="#B4BBE1" points="49.8,210.9 49.8,211 49.8,216.9 45.8,214.4 45.7,208.6 45.8,208.6 125.3,160.1 130.1,157.1 
			133.9,159.5 129.1,162.4 		"/>
		<polygon fill="#FFFFFF" points="83.4,142.4 70.8,150.1 96.2,165.5 108.9,157.8 		"/>
	</g>
</g>
<g id="libroErectoDerechoHechado">
	<path fill="#B4BBE1" d="M313.1,143.5l53.4,29l-0.6-20.6l-46-16.1l-6.9,4.3c-0.9,0.6-1.2,1.8-0.6,2.8
		C312.6,143.2,312.8,143.4,313.1,143.5z"/>
	<polygon fill="#DAE3F2" points="368.9,171.1 315.8,142.2 315.2,120.5 368.3,149.3 	"/>
	<g>
		
			<linearGradient id="SVGID_4_" gradientUnits="userSpaceOnUse" x1="311.5807" y1="91.4542" x2="448.08" y2="91.4542" gradientTransform="matrix(1 0 0 -1 0 234)">
			<stop  offset="0" style="stop-color:#B4BBE1;stop-opacity:0.1"/>
			<stop  offset="0.63" style="stop-color:#B4BBE1;stop-opacity:0.24"/>
			<stop  offset="1" style="stop-color:#B4BBE1;stop-opacity:0.3"/>
		</linearGradient>
		<path fill="url(#SVGID_4_)" d="M312.6,152.2l56.2,30.5l79.3-48.7l-57.5-31.2c-1.1-0.6-2.4-0.5-3.4,0.1l-74.7,45.9
			c-0.9,0.6-1.2,1.8-0.6,2.8C312.1,151.8,312.3,152,312.6,152.2z"/>
		<path fill="#CED2EF" d="M311.7,121c-0.1,0.8,0.3,1.6,1,2.1l53.2,28.9l0.6,20.6l-53.4-29c-0.5-0.3-0.9-0.8-1-1.4l0,0
			c0,0,0.2,2,0.2,2.9c-0.1,0.8,0.3,1.6,1,2l56.2,30.5l79.3-48.7l-21-11.4l20.4-12.5l-57.5-31.2c-1.1-0.6-2.4-0.5-3.4,0.1l-75.7,44.4
			C311.6,118.2,311.7,120,311.7,121z"/>
		<polygon fill="#C5C8E8" points="368.8,150.2 369.5,177.5 448.9,128.8 448.1,101.5 		"/>
		<polygon fill="#FFFFFF" points="374.7,150.3 375.3,171.3 381.4,167.6 380.8,146.6 		"/>
		<polygon fill="#FFFFFF" points="382.8,145.4 383.3,166.4 385.4,165.1 384.9,144.1 		"/>
		<polygon fill="#FFFFFF" points="386.6,143 387.3,164 389.4,162.7 388.8,141.7 		"/>
		<polygon fill="#FFFFFF" points="439.5,110.6 440,131.6 442.1,130.3 441.5,109.3 		"/>
		<path fill="#B4BBE1" d="M312.6,119.7l56.2,30.5l79.3-48.7l-57.5-31.2c-1.1-0.6-2.4-0.5-3.4,0.1l-74.7,45.9
			c-0.9,0.6-1.2,1.8-0.6,2.8C312.1,119.3,312.3,119.5,312.6,119.7z"/>
	</g>
</g>
<g id="spiderWebRight">
	<path fill="none" stroke="#000000" stroke-linecap="round" stroke-linejoin="round" d="M314.9,117.5c-17-28-26-83-26-83
		s25,50,50,68"/>
	<path fill="none" stroke="#000000" stroke-linecap="round" stroke-linejoin="round" d="M358.9,90.5c-31-18-70-56-70-56s-2,77-9,132
		"/>
	<path fill="none" stroke="#000000" stroke-linecap="round" stroke-linejoin="round" d="M288.9,34.5c0,0-13,80-44,141"/>
	<path fill="none" stroke="#000000" stroke-linecap="round" stroke-linejoin="round" d="M307.1,51.2c-1.8,2.1-4.5,3.2-7.3,2.8
		c0,0-0.7,3.1-6.8,1.8c0,0,0.3,2.2-4.9,1.4c-1.2,0.7-2.7,0.3-3.5-0.8"/>
	<path fill="none" stroke="#000000" stroke-linecap="round" stroke-linejoin="round" d="M318.6,61.1c0,0-4.4,6.6-11.6,4.5
		c0,0-3.1,4.8-10.6,3.4c0,0-3.3,4.6-8.9,1.5c0,0-2.1,4.1-6.4,1"/>
	<path fill="none" stroke="#000000" stroke-linecap="round" stroke-linejoin="round" d="M332.1,72c0,0-1.7,10.8-14.4,8.6
		c0,0-5,10.2-15.9,6.5c0,0-6.8,9.7-15.3,3c0,0-3.5,4.3-10-0.2"/>
	<path fill="none" stroke="#000000" stroke-linecap="round" stroke-linejoin="round" d="M350,84.9c0,0-3.9,16-17.5,12.3
		c-4,8.2-12.5,13.2-21.7,12.8c0,0-10,9.2-26,4.3c-4.9,2.3-10.7,2-15.3-0.9"/>
	<path fill="none" stroke="#000000" stroke-linecap="round" stroke-linejoin="round" d="M262,135.9c0,0,9,9.9,21,2.8
		c0,0,24,10.9,34-6.1"/>
	<path fill="none" stroke="#000000" stroke-linecap="round" stroke-linejoin="round" d="M254.4,155c0,0,9.5,12.1,26.5,3.3
		c0,0,31,4.2,49-8.8"/>
	<path fill="none" stroke="#000000" stroke-linecap="round" stroke-linejoin="round" d="M297.9,115.5c0,0,2.9,22.8,9.5,42.4"/>
</g>
<g id="lapiz">
	<g>
		
			<linearGradient id="SVGID_5_" gradientUnits="userSpaceOnUse" x1="139.6" y1="26.9969" x2="208.1253" y2="26.9969" gradientTransform="matrix(1 0 0 -1 0 234)">
			<stop  offset="0" style="stop-color:#B4BBE1;stop-opacity:0.1"/>
			<stop  offset="0.63" style="stop-color:#B4BBE1;stop-opacity:0.24"/>
			<stop  offset="1" style="stop-color:#B4BBE1;stop-opacity:0.3"/>
		</linearGradient>
		<path fill="url(#SVGID_5_)" d="M203.6,192.6l-59.1,34.1l-4.9-2.8l59.1-34.1l9.2-2.4c0.1,0,0.2,0,0.2,0.1c0,0,0,0.1,0,0.1
			L203.6,192.6z"/>
		<path fill="#B4BBE1" d="M198.8,184.2l8-1.9c0.2,0,0.3,0.1,0.4,0.2c0,0.1,0,0.2-0.1,0.3l-5.4,6L198.8,184.2z"/>
		<path fill="#4588FF" d="M207.1,182.8l-2.1,2.4c-0.1-0.7-0.4-1.3-0.8-1.8c-0.1-0.1-0.2-0.2-0.3-0.3l3-0.7c0.1-0.1,0.3,0,0.4,0.2
			C207.2,182.5,207.1,182.7,207.1,182.8z"/>
		<path fill="#3081E2" d="M142.6,219.9c0.5,1.3,1.9,2,3.2,1.5l0,0c0.1-0.1,0.2-0.1,0.3-0.2c0.3-0.2,0.5-0.5,0.6-0.9
			c0.3-0.8,0.2-1.6-0.2-2.4c-0.4-1-1.5-1.7-2.6-1.7c-0.2,0-0.4,0.1-0.6,0.2l-0.1,0.1l-0.1,0.1l0,0
			C142.2,217.5,142,218.8,142.6,219.9z"/>
	</g>
	<path fill="#4588FF" d="M143.4,216.5l0.8,1.3l2,3.4l54.9-32.1l0,0c0.1-0.1,0.2-0.1,0.3-0.2c0.3-0.2,0.5-0.5,0.6-0.9
		c0.3-0.8,0.2-1.6-0.2-2.4c-0.1-0.3-0.3-0.6-0.5-0.8l0,0c-0.5-0.6-1.2-0.9-2-0.9c-0.2,0-0.4,0.1-0.6,0.2l-0.1,0.1l-0.1,0.1l0,0l0,0
		L143.4,216.5z"/>
	<path fill="#80B4FF" d="M143.4,216.5l0.8,1.3l1.9-0.6l55.3-32.3l0,0c-0.5-0.6-1.2-0.9-2-0.9c-0.2,0-0.4,0.1-0.6,0.2l-0.1,0.1
		l-0.1,0.1l0,0l0,0L143.4,216.5z"/>
</g>
<g id="spiderWebLeft">
	<path fill="none" stroke="#000000" stroke-linecap="round" stroke-linejoin="round" d="M78.9,136.5c32-25,71-95,71-95
		s-19,69-43,108"/>
	<path fill="none" stroke="#000000" stroke-linecap="round" stroke-linejoin="round" d="M133.9,166.5c7.4-15.3,17-127,17-127
		s13,106,31,155"/>
	<path fill="none" stroke="#000000" stroke-linecap="round" stroke-linejoin="round" d="M133.9,68.1c0,0,2.7,3.7,6.8,3.1
		c0,0,1.9,2.7,7,1.5c0,0,1.5,4.3,7.8,0.5"/>
	<path fill="none" stroke="#000000" stroke-linecap="round" stroke-linejoin="round" d="M127.4,78.2c0,0,3,6.3,9.3,4.8
		c2.2,2.8,5.9,3.8,9.2,2.5c0,0,4.4,5,11.7,0.5"/>
	<path fill="none" stroke="#000000" stroke-linecap="round" stroke-linejoin="round" d="M119,90.4c0,0,4.3,9.1,13.1,5.1
		c0,0,3.2,6.6,13,2.3c0,0,5.3,5.7,14.5,0.7"/>
	<path fill="none" stroke="#000000" stroke-linecap="round" stroke-linejoin="round" d="M137.9,61.5c0,0,2.9,3.2,5.4,1.6
		c0,0,1,3,5.3,1.2c0,0,2.2,2.9,5.8,0.6"/>
	<path fill="none" stroke="#000000" stroke-linecap="round" stroke-linejoin="round" d="M110.4,102.4c0,0,6.8,10,16.7,6.1
		c4.8,3.3,10.8,4.3,16.3,2.7c0,0,5.8,6.1,18.7,1.3"/>
	<path fill="none" stroke="#000000" stroke-linecap="round" stroke-linejoin="round" d="M98.6,117c0,0,11,8.4,22.2,6
		c0,0,7.2,10.7,20.7,5.1c0,0,13.6,4.6,23.6,0"/>
	<path fill="none" stroke="#000000" stroke-linecap="round" stroke-linejoin="round" d="M84.5,131.8c0,0,12.9,12.4,25.2,13.1
		c0,0,11,13.6,27.6,9.1c10.8,3.2,22.3,3.2,33.1,0"/>
	<path fill="none" stroke="#000000" stroke-linecap="round" stroke-linejoin="round" d="M137.9,177.5c0,0,23.1,8,38.6,0"/>
	<path fill="none" stroke="#000000" stroke-linecap="round" stroke-linejoin="round" d="M151.9,114.3c0,0,1,74.2-3,86.2"/>
	<path fill="none" stroke="#000000" stroke-linecap="round" stroke-linejoin="round" d="M151.6,168.4c0,0,9.5,2.1,21.9-1.9"/>
	<path fill="none" stroke="#000000" stroke-linecap="round" stroke-linejoin="round" d="M150.5,193.1c0,0,20.9,2.2,30.2-2.1"/>
</g>
<g id="spider">
	<path fill="#424242" d="M269.1,190.7c-4,0.4-4.3-6.7-2.4-9s5.7-1,7.1,1c1,1.4,0,3.7-0.7,5.1S271,190.8,269.1,190.7
		C269.3,190.7,269.4,190.6,269.1,190.7z"/>
	<path fill="#424242" d="M269.2,180.5c-0.5-0.1-0.8-1.2-0.7-1.7c0.1-0.4,0.3-0.8,0.7-1c1.3-0.7,2.9-0.5,4.1,0.4
		c1,0.8,1.6,2.5,0.3,3.3C272,182.4,270.2,181.9,269.2,180.5z"/>
	<path fill="#424242" d="M270.5,177.9c-0.5-1.7,2.4-2.1,3.1-0.7C274.5,178.9,271.4,178.4,270.5,177.9z"/>
	<path fill="#424242" d="M272.6,177c-0.6-0.5-0.7-1.5-0.2-2.1c0,0,0.1-0.1,0.1-0.1C271.6,174.1,269.7,177.9,272.6,177L272.6,177z"/>
	<path fill="#424242" d="M272.2,176.7c1.1,0.2,1.5-0.4,1.7-1.4C275,175.4,273.5,179.4,272.2,176.7L272.2,176.7z"/>
	<path fill="#424242" d="M269.5,178.8c-0.2-0.3-0.3-0.6-0.4-1c-0.1-0.6-0.2-1.2-0.2-1.8c-0.1-0.9-0.4-1.7-0.9-2.4
		c-0.4-0.5-0.8-1-1.3-1.5c-0.3-0.4-1.1-0.8-1.1-1.3s-0.1-1.2,0.3-0.7c0.2,0.2,0,0.6,0.2,0.9s0.9,0.7,1.2,0.9
		c0.4,0.4,0.8,0.8,1.1,1.2c0.7,0.6,1.2,1.3,1.5,2.2c0.1,0.3,0,0.5,0,0.8s0.1,0.3,0.2,0.4s-0.1,0.5,0,0.8s0.3,0.6,0.1,0.9
		C269.8,178.8,269.8,178.6,269.5,178.8z"/>
	<path fill="#424242" d="M268.4,181.2c-0.4,0-0.9,0-1.3,0.1c-0.5,0-1.1-0.1-1.6-0.1l-1.7-0.1c-0.9-0.1-1.8,0.1-2.7,0.4
		c-0.4,0.3-0.7,0.6-1,1c-0.4,0.5-0.7,1-1,1.5l-0.5,0.7c-0.3,0.5-0.6,1-0.9,1.4c-0.5,0.5-1,0.9-1.5,1.3c-0.3,0.2-0.7,0.3-0.9,0.5
		s0.3,0.5,0.6,0.5c0.8,0,1.6-0.8,2.1-1.4c0.3-0.4,0.6-0.8,0.8-1.3c0.3-0.4,0.7-0.8,1-1.2c0.4-0.5,0.7-0.9,1-1.4
		c0.2-0.5,0.6-1,1.1-1.3c0.5-0.1,1-0.1,1.5,0c0.6-0.1,1-0.3,1.5-0.1c0.8,0.3,1.7,0.3,2.5,0c0.4-0.1,1,0.2,1.2-0.3
		C268.8,181.5,268.7,181.3,268.4,181.2z"/>
	<path fill="#424242" d="M269,178.7c-0.6-0.9-1.3-1.7-2-2.4c-0.5-0.4-1-0.8-1.5-1.2c-0.8-0.5-1.7-0.7-2.5-1.2
		c-0.8-0.4-1.5-0.8-2.2-1.2c-0.2-0.2-0.4-0.3-0.7-0.3c-0.3,0-0.1,0.6,0.1,0.8c0.4,0.4,0.8,0.4,1.3,0.6c1.3,0.7,2.7,1.4,3.9,2.2
		c0.9,0.6,1.3,1.4,1.9,2.3s0.5,1.2,1.3,1.8s1.4,0.5,1.3-0.6C269.8,179.1,269.3,178.5,269,178.7z"/>
	<path fill="#424242" d="M268.3,179.7c-0.7,0-1.3-0.1-1.9-0.3c-0.7-0.1-1.4-0.3-2.1-0.5c-0.5-0.1-1.1-0.1-1.6-0.2s-0.8-0.2-1.2-0.3
		c-1.4-0.2-2.4,0.9-3.1,2c-0.5,0.6-0.9,1.4-1.3,2.1c-0.1,0.7-0.5,1.3-1.1,1.7c-0.4,0.3-0.8,0.5-1.3,0.6c-0.3,0.1-1.1,0.4-0.6,0.8
		c0.3,0.2,0.8,0.1,1.2,0c1.2-0.3,1.7-1.5,2.2-2.4c0.2-0.6,0.5-1.1,0.9-1.6c0.3-0.3,0.6-0.7,0.9-1.1c0.3-0.4,0.7-0.7,1.1-0.9
		c0.4-0.1,0.9-0.2,1.4-0.2c0.4,0.1,0.8,0.1,1.2,0.1c0.5,0,2.6,0.3,3.2,0.4s0.8,0.4,1.2,0.5s0.6,0.6,1,0.6s1.6-0.4,0.9-1.1
		C269,179.7,268.5,179.9,268.3,179.7z"/>
	<path fill="#424242" d="M273.9,180.2c0.3-0.1,0.6-0.3,0.9-0.6c0.4-0.4,0.8-0.9,1.2-1.4c0.6-0.7,1.3-1.2,2-1.5
		c0.6-0.2,1.3-0.4,1.9-0.5c0.5-0.1,1.4-0.1,1.7-0.5s0.8-0.9,0.1-0.8c-0.3,0.1-0.4,0.5-0.6,0.6s-1.1,0.1-1.5,0.1
		c-0.5,0.1-1.1,0.2-1.6,0.4c-0.9,0.1-1.7,0.4-2.4,1c-0.2,0.2-0.3,0.4-0.4,0.6s-0.3,0.1-0.4,0.3s-0.2,0.5-0.4,0.7s-0.6,0.3-0.6,0.7
		C273.7,179.9,273.8,179.8,273.9,180.2z"/>
	<path fill="#424242" d="M273.5,182.7c0.3,0.1,0.8,0.6,1,0.8c0.4,0.3,0.9,0.5,1.4,0.8s1,0.6,1.5,0.9c0.8,0.4,1.5,1,2,1.8
		c0.2,0.4,0.3,0.9,0.3,1.4c0,0.6,0,1.2,0,1.8c0,0.3,0,0.6,0,0.8c-0.1,0.6-0.1,1.1,0,1.7c0.1,0.7,0.3,1.3,0.5,1.9
		c0.1,0.3,0.5,0.6,0.5,0.9s-0.5,0.2-0.8,0.1c-0.7-0.4-0.9-1.5-1-2.3c0-0.5,0-1,0-1.5c0-0.5-0.1-1-0.2-1.5s-0.1-1.1,0-1.7
		c0.1-0.6,0-1.2-0.3-1.7c-0.3-0.4-0.8-0.5-1.2-0.9s-0.7-0.7-1.3-0.9c-0.8-0.2-1.6-0.6-2.1-1.3c-0.2-0.3-1-0.4-0.8-0.8
		c0-0.2,0.2-0.3,0.4-0.3C273.4,182.7,273.5,182.7,273.5,182.7z"/>
	<path fill="#424242" d="M274.1,180.2c1-0.4,2-0.7,3-0.9c0.6-0.1,1.3-0.2,1.9-0.2c0.9,0,1.8,0.3,2.8,0.4c0.8,0.1,1.7,0.2,2.5,0.2
		c0.3-0.1,0.5,0,0.8,0.1c0.2,0.2-0.3,0.5-0.5,0.6c-0.5,0.2-0.9-0.1-1.4-0.2c-1.5-0.2-3-0.3-4.5-0.3c-1,0.1-2,0.4-2.9,0.9
		c-1,0.4-1,0.7-2.1,0.8s-1.5-0.3-0.8-1.1C273.3,180.1,274.1,179.9,274.1,180.2z"/>
	<path fill="#424242" d="M274.2,181.5c0.6,0.3,1.2,0.6,1.8,0.8c0.7,0.3,1.3,0.5,2,0.7c0.5,0.2,1,0.5,1.5,0.7s0.8,0.2,1.1,0.4
		c1.3,0.7,1.6,2.1,1.5,3.4c0.1,0.8,0,1.7-0.1,2.5c-0.3,0.6-0.3,1.4,0,2c0.2,0.4,0.4,0.9,0.7,1.2c0.2,0.3,0.7,0.9,0.1,1
		c-0.4,0-0.8-0.4-1-0.6c-0.9-0.9-0.6-2.1-0.5-3.2c0.1-0.6,0.2-1.2,0.2-1.8c-0.1-0.4-0.1-0.9-0.1-1.4c0-0.5-0.2-1-0.5-1.4
		c-0.3-0.3-0.6-0.7-1-0.9c-0.4-0.2-0.7-0.4-1.1-0.6s-2.4-1.1-2.9-1.4s-0.9-0.1-1.3-0.3s-0.9,0.2-1.2,0s-1.1-1.2-0.1-1.4
		C273.7,181.1,274,181.5,274.2,181.5z"/>
</g>
</svg>
