<svg xmlns="http://www.w3.org/2000/svg" xmlns:xlink="http://www.w3.org/1999/xlink" viewBox="0 0 449.39 231.21"><defs><style>.cls-1{fill:url(#linear-gradient);}.cls-2{fill:#2875df;}.cls-3{fill:#75bcfc;}.cls-4{fill:#4594f4;}.cls-5{fill:#347ee8;}.cls-6{fill:#fff;}.cls-7{fill:#205ce2;}.cls-8{fill:url(#linear-gradient-2);}.cls-9{fill:#b4bbe1;}.cls-10{fill:#dae3f2;}.cls-11{fill:#ced2ef;}.cls-12{fill:#c5c8e8;}.cls-13{fill:url(#linear-gradient-3);}.cls-14{fill:#4588ff;}.cls-15{fill:#80b4ff;}.cls-16{fill:#3081e2;}.cls-17{fill:url(#linear-gradient-4);}.cls-18{fill:#c2e9f3;}.cls-19{fill:#8fc0c8;}.cls-20{fill:url(#linear-gradient-5);}.cls-21{fill:#8ddbf4;}.cls-22{fill:#8cd9f4;}.cls-23{fill:#83cde1;}</style><linearGradient id="linear-gradient" x1="225.5" y1="107.87" x2="153.42" y2="149.48" gradientUnits="userSpaceOnUse"><stop offset="0" stop-color="#b4bbe1" stop-opacity="0.1"/><stop offset="0.63" stop-color="#b4bbe1" stop-opacity="0.24"/><stop offset="1" stop-color="#b4bbe1" stop-opacity="0.3"/></linearGradient><linearGradient id="linear-gradient-2" x1="285.03" y1="123.26" x2="212.95" y2="164.88" xlink:href="#linear-gradient"/><linearGradient id="linear-gradient-3" x1="140.14" y1="207" x2="208.67" y2="207" xlink:href="#linear-gradient"/><linearGradient id="linear-gradient-4" x1="0.54" y1="185.5" x2="146.56" y2="185.5" xlink:href="#linear-gradient"/><linearGradient id="linear-gradient-5" x1="312.1" y1="142.54" x2="448.62" y2="142.54" xlink:href="#linear-gradient"/></defs><title>Recurso 1</title><g id="Capa_2" data-name="Capa 2"><g id="Capa_8" data-name="Capa 8"><polygon class="cls-1" points="147.15 138.62 172.17 153.03 231.76 118.73 206.94 104.23 147.15 138.62"/><path class="cls-2" d="M209,2,153.28,34,172.17,44.9l39.92-32.53V3.77A2.08,2.08,0,0,0,209,2Z"/><polygon class="cls-3" points="153.27 37.01 208.64 5.12 228.57 16.62 173.22 48.5 153.27 37.01"/><path class="cls-4" d="M230.09,13.16a2.32,2.32,0,0,0-2.42-.23l-55.5,32L153.28,34,209,2a2,2,0,0,1,1.81-.12h0S208.83.88,208.06.42a2.26,2.26,0,0,0-2.33-.16L147.15,34v98.42l21.94-12.64V145.1L229,110.6a3.62,3.62,0,0,0,1.81-3.14l1.87-92.84S230.93,13.7,230.09,13.16Z"/><polygon class="cls-5" points="172.17 48.44 147.15 34.02 147.15 132.45 172.17 146.86 172.17 48.44"/><polygon class="cls-6" points="168.77 53.75 149.48 42.64 149.48 50.17 168.77 61.28 168.77 53.75"/><polygon class="cls-6" points="168.77 63.69 149.48 52.58 149.48 55.19 168.77 66.3 168.77 63.69"/><polygon class="cls-6" points="168.77 68.54 149.48 57.43 149.48 60.03 168.77 71.14 168.77 68.54"/><polygon class="cls-6" points="168.77 134.06 149.48 122.95 149.48 125.55 168.77 136.67 168.77 134.06"/><path class="cls-7" d="M230.75,14.69,172.17,48.44v98.42l59.9-34.5a3.63,3.63,0,0,0,1.82-3.14V16.5A2.1,2.1,0,0,0,230.75,14.69Z"/><polygon class="cls-8" points="206.68 154.02 231.71 168.43 291.3 134.13 266.47 119.63 206.68 154.02"/><path class="cls-9" d="M268.5,16.55,212.82,48.62l18.89,10.87L271.63,27V18.36A2.09,2.09,0,0,0,268.5,16.55Z"/><polygon class="cls-10" points="212.81 51.61 268.18 19.71 288.11 31.21 232.75 63.1 212.81 51.61"/><path class="cls-11" d="M289.62,27.76a2.26,2.26,0,0,0-2.41-.23l-55.5,32L212.82,48.62,268.5,16.55a2,2,0,0,1,1.81-.11v0s-1.94-1-2.71-1.4a2.26,2.26,0,0,0-2.34-.17L206.68,48.6V147l21.95-12.64V159.7l59.9-34.51a3.61,3.61,0,0,0,1.81-3.13l1.87-92.84S290.47,28.29,289.62,27.76Z"/><polygon class="cls-12" points="231.71 63.03 206.68 48.62 206.68 147.04 231.71 161.46 231.71 63.03"/><polygon class="cls-6" points="228.3 68.35 209.01 57.24 209.01 64.77 228.3 75.88 228.3 68.35"/><polygon class="cls-6" points="228.3 78.29 209.01 67.17 209.01 69.78 228.3 80.89 228.3 78.29"/><polygon class="cls-6" points="228.3 83.13 209.01 72.02 209.01 74.63 228.3 85.74 228.3 83.13"/><polygon class="cls-6" points="228.3 148.66 209.01 137.54 209.01 140.15 228.3 151.26 228.3 148.66"/><path class="cls-9" d="M290.29,29.29,231.71,63v98.43L291.61,127a3.61,3.61,0,0,0,1.81-3.13V31.1A2.09,2.09,0,0,0,290.29,29.29Z"/><path class="cls-13" d="M204.16,192.59l-59.1,34.1-4.92-2.82,59.1-34.11,9.22-2.44a.17.17,0,0,1,.17.27Z"/><path class="cls-9" d="M199.34,184.17l8-1.9a.29.29,0,0,1,.28.48l-5.42,6Z"/><path class="cls-14" d="M207.6,182.75l-2.13,2.35a3.22,3.22,0,0,0-.83-1.81,2.35,2.35,0,0,0-.33-.3l3-.71A.28.28,0,0,1,207.6,182.75Z"/><path class="cls-14" d="M143.93,216.51l.75,1.33,1.95,3.42,54.94-32.07h0a1.85,1.85,0,0,0,.33-.21,2,2,0,0,0,.63-.86,3,3,0,0,0-.16-2.36,3.51,3.51,0,0,0-.54-.8h0a2.49,2.49,0,0,0-2-.89,1.68,1.68,0,0,0-.59.17l-.1.05-.12.07-.05,0,0,0Z"/><path class="cls-15" d="M143.93,216.51l.75,1.33,1.91-.57L201.85,185h0a2.49,2.49,0,0,0-2-.89,1.68,1.68,0,0,0-.59.17l-.1.05-.12.07-.05,0,0,0Z"/><path class="cls-16" d="M143.13,219.94a2.51,2.51,0,0,0,3.16,1.53h0a1.42,1.42,0,0,0,.33-.21,2,2,0,0,0,.63-.86,3.07,3.07,0,0,0-.16-2.36,2.74,2.74,0,0,0-2.59-1.7,1.69,1.69,0,0,0-.58.17l-.1.05-.12.07-.05,0A2.64,2.64,0,0,0,143.13,219.94Z"/><path class="cls-17" d="M146.56,180.26A3.12,3.12,0,0,1,145,183L66.77,230.73a3.08,3.08,0,0,1-3.3,0l-13.18-8-3.93-2.41L6.42,195.93l-1.93-1.2L2,193.24a3,3,0,0,1-1.49-2.53A3.07,3.07,0,0,1,2,187.86l78-47.62a3.23,3.23,0,0,1,3.29,0l5.22,3.18,1.93,1.16,40.1,24.27,3.86,2.33L145,177.57A3.13,3.13,0,0,1,146.56,180.26Z"/><path class="cls-18" d="M2.05,176.15l78-47.6a3.15,3.15,0,0,1,3.28,0L145,165.86a3.17,3.17,0,0,1,0,5.41L66.77,219a3.16,3.16,0,0,1-3.3,0L2.05,181.55A3.17,3.17,0,0,1,2.05,176.15Z"/><path class="cls-19" d="M141.29,168a1.52,1.52,0,0,0-.62,1.13L83.34,134.4a3.15,3.15,0,0,0-3.28,0l-75,45.77C3.1,179.65.54,179,.54,179v6l.09,0a3.08,3.08,0,0,0,1.42,2.36l61.42,37.48a3.16,3.16,0,0,0,3.3,0L145,177.13a3.06,3.06,0,0,0,1.35-2.06h.16v-6.53S142.15,167.54,141.29,168Z"/><path class="cls-15" d="M146.56,168.56v6.51h-.16a3,3,0,0,1-1.36,2.05L66.77,224.89a3.25,3.25,0,0,1-3.3,0l-13.14-8-4-2.46L2,187.4A3,3,0,0,1,.63,185H.55v-6s2.57.64,4.5,1.16l75-45.76a3.19,3.19,0,0,1,3.29,0l42.43,25.67,3.86,2.33,11,6.67c.12-.48.28-1,.64-1.12C142.14,167.52,146.56,168.56,146.56,168.56Z"/><path class="cls-14" d="M146.56,168.56a3.13,3.13,0,0,1-1.52,2.69L66.77,219a3,3,0,0,1-3.3,0l-13.18-8-3.93-2.41L6.42,184.23,4.49,183,2,181.54A3,3,0,0,1,.55,179,3.1,3.1,0,0,1,2,176.15l78-47.61a3.23,3.23,0,0,1,3.29,0l5.22,3.18,1.93,1.16,40.1,24.27,3.86,2.33L145,165.87A3.13,3.13,0,0,1,146.56,168.56Z"/><polygon class="cls-9" points="50.29 210.87 50.29 210.99 50.33 216.86 46.31 214.4 46.27 208.62 46.35 208.58 125.79 160.08 130.61 157.15 134.47 159.48 129.65 162.41 50.29 210.87"/><polygon class="cls-6" points="83.95 142.38 71.35 150.07 96.75 165.53 109.39 157.81 83.95 142.38"/><path class="cls-20" d="M313.13,152.19l56.18,30.51L448.62,134l-57.45-31.2a3.43,3.43,0,0,0-3.42.1L313,148.77A2,2,0,0,0,313.13,152.19Z"/><path class="cls-9" d="M313.65,143.54l53.4,29-.59-20.6-46-16.08-6.93,4.26A2,2,0,0,0,313.65,143.54Z"/><polygon class="cls-10" points="369.46 171.07 316.36 142.24 315.76 120.48 368.84 149.31 369.46 171.07"/><path class="cls-11" d="M312.23,121a2.16,2.16,0,0,0,1,2.06l53.23,28.91.59,20.6-53.4-29a2,2,0,0,1-1-1.4h0s.19,2,.21,2.87a2.15,2.15,0,0,0,1,2l56.18,30.51,79.31-48.71-21-11.43,20.4-12.53-57.45-31.2a3.43,3.43,0,0,0-3.42.1l-75.74,44.43S312.24,120,312.23,121Z"/><polygon class="cls-12" points="369.31 150.19 370.08 177.48 449.39 128.78 448.62 101.48 369.31 150.19"/><polygon class="cls-6" points="375.28 150.3 375.87 171.34 381.94 167.62 381.34 146.57 375.28 150.3"/><polygon class="cls-6" points="383.29 145.38 383.88 166.42 385.98 165.13 385.39 144.09 383.29 145.38"/><polygon class="cls-6" points="387.19 142.98 387.79 164.02 389.88 162.73 389.29 141.69 387.19 142.98"/><polygon class="cls-6" points="439.99 110.56 440.58 131.6 442.68 130.31 442.09 109.27 439.99 110.56"/><path class="cls-9" d="M313.13,119.68l56.18,30.51,79.31-48.71-57.45-31.2a3.43,3.43,0,0,0-3.42.09L313,116.26A2,2,0,0,0,313.13,119.68Z"/><ellipse class="cls-21" cx="45.28" cy="33.79" rx="3.85" ry="24.79"/><ellipse class="cls-21" cx="45.28" cy="33.79" rx="24.79" ry="3.85"/><path class="cls-22" d="M435.49,198.15a2,2,0,0,0,2.43-1.49,2,2,0,0,0-1.34-2.38c-1.72-.48-17-5.4-12-23.46a1.94,1.94,0,1,0-3.73-1c-5.07,18.06-20.7,14.29-22.42,13.81l-.15,0a1.93,1.93,0,0,0-2.24,1.38,2,2,0,0,0,1.34,2.38c1.86.53,17,5.4,12,23.46a2,2,0,0,0,1.34,2.39,1.72,1.72,0,0,0,2.2-1.24c5.07-18.06,20.71-14.29,22.43-13.8l.14,0ZM414,200.92a20,20,0,0,0-7.46-13.07,20,20,0,0,0,13.18-7.27,20,20,0,0,0,7.46,13.07A20,20,0,0,0,414,200.92Z"/><path class="cls-23" d="M384.27,49a2.23,2.23,0,0,0-.86-1.58C380.63,45.88,357.25,31.76,372.52,4a1.82,1.82,0,0,0-.7-2.43,1.82,1.82,0,0,0-2.44.71C354.11,30,329.66,17.85,327,16.39a1.54,1.54,0,0,0-1.16-.17,2,2,0,0,0-.75.22,2.05,2.05,0,0,0-.87,1.57,1.91,1.91,0,0,0,1,1.64l.12.07c2.78,1.52,26,15.58,10.76,43.36a1.79,1.79,0,0,0,3.14,1.72c15.21-27.66,39.61-15.66,42.39-14.13a2.08,2.08,0,0,0,1.91-.05A1.67,1.67,0,0,0,384.27,49Zm-40.22,3c2.81-13.4-3-23.07-8.61-29,8,1.55,19.26,1.31,29.07-8.23-2.81,13.4,3.05,23.06,8.61,29C365.16,42.25,353.86,42.49,344.05,52Z"/><ellipse class="cls-21" cx="382.26" cy="202.35" rx="8.83" ry="1.37" transform="translate(6.23 416.06) rotate(-57.51)"/><ellipse class="cls-21" cx="382.26" cy="202.35" rx="1.37" ry="8.83" transform="translate(6.23 416.06) rotate(-57.51)"/><path class="cls-6" d="M400.16,86.7c-.63.69-6.57,6.63-13.75,0A1,1,0,0,0,385,88.16c7.19,6.66,1.71,13,1.07,13.71l-.05.06a1,1,0,0,0,.11,1.37,1,1,0,0,0,1.43-.06c.68-.74,6.57-6.63,13.75,0a1,1,0,0,0,1.43,0c.43-.24.41-.9,0-1.32-7.18-6.66-1.7-13-1.07-13.71l.05-.06a1,1,0,0,0-.11-1.48A1,1,0,0,0,400.16,86.7Zm-2.23,12.14a10.68,10.68,0,0,0-7.86.35,10.44,10.44,0,0,0-.24-7.86,10.45,10.45,0,0,0,7.86-.35A10.44,10.44,0,0,0,397.93,98.84Z"/><ellipse class="cls-6" cx="376.03" cy="121.46" rx="5.33" ry="0.83" transform="translate(159.32 451.9) rotate(-74.64)"/><ellipse class="cls-6" cx="376.03" cy="121.46" rx="0.83" ry="5.33" transform="translate(159.32 451.9) rotate(-74.64)"/><ellipse class="cls-21" cx="428.4" cy="27.63" rx="1.17" ry="7.53" transform="translate(2.08 78.06) rotate(-10.44)"/><ellipse class="cls-21" cx="428.4" cy="27.63" rx="7.53" ry="1.17" transform="translate(2.08 78.06) rotate(-10.44)"/><ellipse class="cls-21" cx="7.48" cy="89.5" rx="8.83" ry="1.37" transform="matrix(0.54, -0.84, 0.84, 0.54, -72.02, 47.73)"/><ellipse class="cls-21" cx="7.48" cy="89.5" rx="1.37" ry="8.83" transform="translate(-72.02 47.73) rotate(-57.51)"/><path class="cls-6" d="M65.67,169.31c-.87.33-8.82,3.06-12.35-6.08a1,1,0,1,0-1.88.73c3.52,9.14-4.2,12.45-5.07,12.79l-.07,0a1,1,0,0,0-.51,1.27,1,1,0,0,0,1.31.58c.94-.36,8.81-3.06,12.34,6.08a1,1,0,0,0,1.31.58c.49,0,.75-.63.53-1.21-3.52-9.14,4.2-12.45,5.07-12.79l.07,0a1,1,0,0,0,.55-1.38A1,1,0,0,0,65.67,169.31Zm-7.35,9.91a10.7,10.7,0,0,0-7.21-3.14,10.42,10.42,0,0,0,3.24-7.16,10.45,10.45,0,0,0,7.21,3.14A10.46,10.46,0,0,0,58.32,179.22Z"/><ellipse class="cls-6" cx="265.53" cy="92.46" rx="5.33" ry="0.83" transform="translate(106.05 324.02) rotate(-74.64)"/><ellipse class="cls-6" cx="265.53" cy="92.46" rx="0.83" ry="5.33" transform="matrix(0.26, -0.96, 0.96, 0.26, 106.05, 324.02)"/></g></g></svg>