<svg xmlns="http://www.w3.org/2000/svg" viewBox="0 0 49.19 53.12"><defs><style>.cls-1{fill:#fff;}</style></defs><title>Recurso 2</title><g id="Capa_2" data-name="Capa 2"><g id="recordatorio"><path class="cls-1" d="M24.59,7.87a16.72,16.72,0,0,0-5.9,32.36v9a1,1,0,0,0,1,1h1v2a1,1,0,0,0,1,1h5.9a1,1,0,0,0,1-1v-2h1a1,1,0,0,0,1-1v-9a16.72,16.72,0,0,0-5.9-32.36ZM27.54,48.2a1,1,0,0,0-1,1v2H22.63v-2a1,1,0,0,0-1-1h-1V43.28h7.87V48.2Zm1.66-9.6a1,1,0,0,0-.67.94v1.78H20.66V39.54A1,1,0,0,0,20,38.6a14.76,14.76,0,1,1,9.22,0Z"/><path class="cls-1" d="M24.59,5.9a1,1,0,0,0,1-1V1a1,1,0,0,0-2,0V4.92A1,1,0,0,0,24.59,5.9Z"/><path class="cls-1" d="M48.2,23.61H44.27a1,1,0,1,0,0,2H48.2a1,1,0,1,0,0-2Z"/><path class="cls-1" d="M4.92,23.61H1a1,1,0,0,0,0,2H4.92a1,1,0,0,0,0-2Z"/><path class="cls-1" d="M40.59,7.2,37.81,10a1,1,0,0,0,0,1.4,1,1,0,0,0,1.39,0L42,8.59A1,1,0,0,0,42,7.2,1,1,0,0,0,40.59,7.2Z"/><path class="cls-1" d="M10,37.81,7.2,40.59A1,1,0,0,0,7.2,42a1,1,0,0,0,.7.29A1,1,0,0,0,8.59,42l2.79-2.78a1,1,0,0,0,0-1.39A1,1,0,0,0,10,37.81Z"/><path class="cls-1" d="M39.2,37.81a1,1,0,0,0-1.39,1.39L40.59,42a1,1,0,0,0,.7.29A1,1,0,0,0,42,40.59Z"/><path class="cls-1" d="M10,11.38a1,1,0,0,0,1.4-1.4L8.59,7.2A1,1,0,1,0,7.2,8.59Z"/><path class="cls-1" d="M24.59,12.79a11.81,11.81,0,0,0-11.8,11.8,1,1,0,1,0,2,0,9.84,9.84,0,0,1,9.83-9.83,1,1,0,1,0,0-2Z"/></g></g></svg>