<svg xmlns="http://www.w3.org/2000/svg" viewBox="0 0 135.2 104.39"><defs><style>.cls-1{fill:#fff;}.cls-2{fill:#106ebe;}</style></defs><title>Recurso 2</title><g id="Capa_2" data-name="Capa 2"><g id="Capa_1-2" data-name="Capa 1"><path class="cls-1" d="M134.2,15.4V86c-32.8,18-70.8,26.1-97.9,8.9C4.9,75,.3,29,0,6H124.7A9.41,9.41,0,0,1,134.2,15.4Z"/><path class="cls-2" d="M135.2,9.4V80c-32.8,18-70.8,26.1-97.9,8.9C5.9,69.1,1.3,23.1,1,0H125.7A9.47,9.47,0,0,1,135.2,9.4Z"/><path class="cls-2" d="M135.1,9.4V80c-32.8,18-70.8,26.1-97.9,8.9C5.9,69.1,1.2,23.1,1,0H125.7A9.39,9.39,0,0,1,135.1,9.4Z"/><path class="cls-1" d="M111.2,37.8,85.6,26.3a.63.63,0,0,0-.6,0L74.7,30.9a.76.76,0,0,0,.6,1.4l10-4.5L94.4,32v5.7a30.38,30.38,0,0,0-9.1-1.9h0a33.58,33.58,0,0,0-10.2,2.3,29.07,29.07,0,0,0-5.8,3.2,1.38,1.38,0,0,0-.3.4l-7.3-3.2,10.2-4.6a.76.76,0,1,0-.6-1.4L59.5,37.8a.75.75,0,0,0-.5.7c0,.3.2.5.5.7L69,43.4v3.7a.79.79,0,0,0,.8.8.86.86,0,0,0,.8-.8V42.9h0v-.6a24.84,24.84,0,0,1,5.1-2.8,35.7,35.7,0,0,1,9.7-2.3,30.49,30.49,0,0,1,9.2,2V47a2.76,2.76,0,0,0-2,2.6,2.53,2.53,0,0,0,1.7,2.5l-.5,1.4A29,29,0,0,0,85.4,56c-4.6-2.4-12.4-3.1-14.8-3.2V50.6a.79.79,0,0,0-.8-.8.86.86,0,0,0-.8.8v3.1a.86.86,0,0,0,.7.8c.1,0,10.2.5,15.2,3.3a.85.85,0,0,0,.8,0A20.9,20.9,0,0,1,93,55.5l-.5,1.2a.59.59,0,0,0,.1.7c.2.2.4.4.6.4h4a.55.55,0,0,0,.6-.4.62.62,0,0,0,.1-.7l-.7-1.8a28.21,28.21,0,0,1,3.6-.3.71.71,0,0,0,.7-.8V50.9a.79.79,0,0,0-.8-.8.86.86,0,0,0-.8.8v2.2c-.7.1-1.9.2-3.4.4l-.1-1.1a2.83,2.83,0,0,0,1.7-2.5,2.59,2.59,0,0,0-2-2.6v-7a23.78,23.78,0,0,1,4.1,2.3v.5h0v4.2a.79.79,0,0,0,.8.8.86.86,0,0,0,.8-.8V43.6l9.5-4.2a.75.75,0,0,0,.5-.7C111.6,38.1,111.4,37.9,111.2,37.8ZM94.5,56.1l.8-2.3.8,2.3Zm2-6.4a1.2,1.2,0,1,1-1.2-1.2A1.22,1.22,0,0,1,96.5,49.7Zm5.1-7.9a1.38,1.38,0,0,0-.3-.4,22.08,22.08,0,0,0-5.2-3V32.7l12.8,5.8Z"/></g></g></svg>