<svg xmlns="http://www.w3.org/2000/svg" viewBox="0 0 135.2 104.39"><defs><style>.cls-1{fill:#fff;}.cls-2{fill:#106ebe;}</style></defs><title>Recurso 1</title><g id="Capa_2" data-name="Capa 2"><g id="Capa_1-2" data-name="Capa 1"><path class="cls-1" d="M134.2,15.4V86c-32.8,18-70.8,26.1-97.9,8.9C4.9,75,.3,29,0,6H124.7A9.41,9.41,0,0,1,134.2,15.4Z"/><path class="cls-2" d="M135.2,9.4V80c-32.8,18-70.8,26.1-97.9,8.9C5.9,69.1,1.3,23.1,1,0H125.7A9.47,9.47,0,0,1,135.2,9.4Z"/><path class="cls-2" d="M135.1,9.4V80c-32.8,18-70.8,26.1-97.9,8.9C5.9,69.1,1.2,23.1,1,0H125.7A9.39,9.39,0,0,1,135.1,9.4Z"/><path class="cls-1" d="M103.8,22.5H64.6a2.43,2.43,0,0,0-2.4,2.4v8.6a.7.7,0,1,0,1.4,0V24.9a1.11,1.11,0,0,1,1.1-1.1h39.1a1.11,1.11,0,0,1,1.1,1.1v26a1.11,1.11,0,0,1-1.1,1.1H90.4c0-.3.1-.6.1-.9a2.77,2.77,0,0,0-.1-.9h8.4a.68.68,0,0,0,.7-.7,3,3,0,0,1,3-3,.68.68,0,0,0,.7-.7v-11a.7.7,0,0,0-1.4,0V45.3a4.35,4.35,0,0,0-3.6,3.6H90a6.21,6.21,0,0,0-11.6,0H70.2a4.35,4.35,0,0,0-3.6-3.6V30.5a4.35,4.35,0,0,0,3.6-3.6h28a4.35,4.35,0,0,0,3.6,3.6v1.3a.7.7,0,0,0,1.4,0V29.9a.68.68,0,0,0-.7-.7,3,3,0,0,1-3-3,.68.68,0,0,0-.7-.7H69.7a.68.68,0,0,0-.7.7,3,3,0,0,1-3,3,.68.68,0,0,0-.7.7v16a.68.68,0,0,0,.7.7,3,3,0,0,1,3,3,.68.68,0,0,0,.7.7h8.4c0,.3-.1.6-.1.9a2.77,2.77,0,0,0,.1.9H64.6A1.11,1.11,0,0,1,63.5,51V36.6a.7.7,0,1,0-1.4,0V51a2.43,2.43,0,0,0,2.4,2.4H78.3a5.07,5.07,0,0,0,.9,1.6v7a.55.55,0,0,0,.3.5,1.27,1.27,0,0,0,.6.1l4-1.6,4,1.6h.2a.6.6,0,0,0,.4-.1A.55.55,0,0,0,89,62V60.1a.7.7,0,0,0-1.4,0V61l-3.4-1.4a.45.45,0,0,0-.5,0L80.3,61V56.3a6.47,6.47,0,0,0,3.6,1.2,5.78,5.78,0,0,0,3.6-1.2v.8a.7.7,0,1,0,1.4,0V55a5.07,5.07,0,0,0,.9-1.6h14a2.43,2.43,0,0,0,2.4-2.4V25A2.39,2.39,0,0,0,103.8,22.5ZM84.2,56a4.9,4.9,0,1,1,4.9-4.9A4.91,4.91,0,0,1,84.2,56Z"/><path class="cls-1" d="M90,31.1a.7.7,0,1,0,0-1.4H78.5a.7.7,0,1,0,0,1.4Z"/><path class="cls-1" d="M94.3,33.3H74.2a.7.7,0,1,0,0,1.4H94.3a.7.7,0,1,0,0-1.4Z"/><path class="cls-1" d="M94.3,36.8H74.2a.7.7,0,1,0,0,1.4H94.3a.7.7,0,1,0,0-1.4Z"/><path class="cls-1" d="M94.3,40.7H91.2a.7.7,0,0,0,0,1.4h3.1a.7.7,0,1,0,0-1.4Z"/><path class="cls-1" d="M74.2,40.7a.7.7,0,1,0,0,1.4h3.1a.7.7,0,0,0,0-1.4Z"/><path class="cls-1" d="M84.2,47.7a3.4,3.4,0,1,0,3.4,3.4A3.37,3.37,0,0,0,84.2,47.7Zm0,5.5a2.1,2.1,0,0,1,0-4.2,2.18,2.18,0,0,1,2.1,2.1A2,2,0,0,1,84.2,53.2Z"/><path class="cls-1" d="M82,41.4a2.2,2.2,0,1,0,2.2-2.2A2.22,2.22,0,0,0,82,41.4Zm3.1,0a.9.9,0,1,1-.9-.9A.9.9,0,0,1,85.1,41.4Z"/></g></g></svg>