<svg xmlns="http://www.w3.org/2000/svg" viewBox="0 0 135.1 104.39"><defs><style>.cls-1{fill:#fff;}.cls-2{fill:#ededed;}.cls-3{fill:#106ebe;}</style></defs><title>Recurso 1</title><g id="Capa_2" data-name="Capa 2"><g id="Capa_1-2" data-name="Capa 1"><path class="cls-1" d="M134.2,15.4V86c-32.8,18-70.8,26.1-97.9,8.9C4.9,75,.3,29,0,6H124.7A9.41,9.41,0,0,1,134.2,15.4Z"/><path class="cls-2" d="M135.1,9.4V80c-32.8,18-70.8,26.1-97.9,8.9C5.9,69.1,1.2,23.1,1,0H125.7A9.39,9.39,0,0,1,135.1,9.4Z"/><path class="cls-3" d="M77.3,40.8a.63.63,0,0,0-.6-.5h-.6a9,9,0,0,0-2-15.3.64.64,0,0,0-.6,0,.6.6,0,0,0-.3.6v7H67.6v-7a.86.86,0,0,0-.3-.6.64.64,0,0,0-.6,0,9.14,9.14,0,0,0-5.4,8.1,9,9,0,0,0,4.9,8.3v3.3H64.4a2.57,2.57,0,0,0-2.3,1.6,2.44,2.44,0,0,0,.5,2.6,2.67,2.67,0,0,0-.7,1.8,3.12,3.12,0,0,0,.7,1.8,2.67,2.67,0,0,0-.7,1.8,3.12,3.12,0,0,0,.7,1.8,2.33,2.33,0,0,0-.5,2.6,2.62,2.62,0,0,0,2.3,1.6h1.8v2.8a4.2,4.2,0,1,0,8.4,0V60.3h29V58.9H78.8V46.2h24.8V44.8h-25Zm-.2,3.8H74.6V41.8h1.5ZM74.6,26.8a7.82,7.82,0,0,1,3.5,5.8H74.6ZM67.1,40.3a8,8,0,0,1-4.5-6.4,7.77,7.77,0,0,1,3.5-7v6.5a.68.68,0,0,0,.7.7H77.9a7.59,7.59,0,0,1-4.4,6.2.68.68,0,0,0-.4.6v3.7H71V41.1H69.6v3.5H67.5V40.9a.55.55,0,0,0-.4-.6ZM63.3,57.5a1,1,0,0,1,1.1-1.1.7.7,0,0,0,0-1.4,1.1,1.1,0,0,1,0-2.2.7.7,0,0,0,0-1.4,1,1,0,0,1-1.1-1.1,1,1,0,0,1,1.1-1.1.7.7,0,0,0,0-1.4,1.1,1.1,0,1,1,0-2.2H77.3V58.2H64.4C63.9,58.6,63.3,58,63.3,57.5Zm9.8,5.3a2.8,2.8,0,0,1-2.8,2.8,2.86,2.86,0,0,1-2.8-2.8V60h5.6Z"/><path class="cls-3" d="M72.8,62.8a1.4,1.4,0,1,1-2.8,0,1.4,1.4,0,1,1,2.8,0Z"/><path class="cls-3" d="M68.6,36.1h5.6v1.4H68.6Z"/><path class="cls-3" d="M81.2,55.1A2.1,2.1,0,1,0,83.3,53,2.05,2.05,0,0,0,81.2,55.1Zm2.8,0a.7.7,0,1,1-.7-.7A.68.68,0,0,1,84,55.1Z"/></g></g></svg>